/* XPM */
static char *a418ecd4324d415db409f9ad4a59b57bPjBIJUyTjFrj8oZZ[] = {
/* columns rows colors chars-per-pixel */
"50 50 240 2 ",
"   c #000606",
".  c #190507",
"X  c #171413",
"o  c #1D1312",
"O  c #280403",
"+  c #390800",
"@  c #25140C",
"#  c #34110B",
"$  c #241413",
"%  c #2A1614",
"&  c #261A14",
"*  c #2A1A14",
"=  c #2A171C",
"-  c #2B1A19",
";  c #341514",
":  c #3B1515",
">  c #351B17",
",  c #3C1A19",
"<  c #322103",
"1  c #2E2019",
"2  c #382215",
"3  c #34231C",
"4  c #3A231B",
"5  c #3C2A1E",
"6  c #362825",
"7  c #3C2C23",
"8  c #3B3233",
"9  c #440E11",
"0  c #471917",
"q  c #431A19",
"w  c #561C18",
"e  c #45281D",
"r  c #56241E",
"t  c #4A311E",
"y  c #52391A",
"u  c #6A271F",
"i  c #432D23",
"p  c #492B23",
"a  c #5C2D21",
"s  c #443425",
"d  c #4C3424",
"f  c #44352B",
"g  c #46392C",
"h  c #4B3829",
"j  c #4B3B2C",
"k  c #543B25",
"l  c #573826",
"z  c #543D2A",
"x  c #5A3E2B",
"c  c #463935",
"v  c #4B3C32",
"b  c #533C36",
"n  c #652A23",
"m  c #742922",
"M  c #673326",
"N  c #783327",
"B  c #4E412E",
"V  c #514327",
"C  c #55422B",
"Z  c #5B432C",
"A  c #5D4A2E",
"S  c #4E4135",
"D  c #4C423A",
"F  c #534333",
"G  c #5C4532",
"H  c #5B4837",
"J  c #53443C",
"K  c #554A3E",
"L  c #5A4A3D",
"P  c #61462D",
"I  c #63492E",
"U  c #6B4A2A",
"Y  c #77482E",
"T  c #644B31",
"R  c #684C35",
"E  c #784C35",
"W  c #6C5436",
"Q  c #6C533B",
"!  c #7A5735",
"~  c #73543A",
"^  c #79573B",
"/  c #725B3D",
"(  c #7B5A3E",
")  c #7A653E",
"_  c #483F4A",
"`  c #4E4644",
"'  c #544642",
"]  c #594743",
"[  c #564A43",
"{  c #5A4D44",
"}  c #554B4A",
"|  c #5A4E4B",
" . c #5D5346",
".. c #5D524C",
"X. c #534B53",
"o. c #5D5353",
"O. c #5F5558",
"+. c #674B47",
"@. c #6A5646",
"#. c #62564E",
"$. c #765D45",
"%. c #7C5C41",
"&. c #625552",
"*. c #645B54",
"=. c #665A58",
"-. c #645A5A",
";. c #6A5E5C",
":. c #7A5B55",
">. c #766346",
",. c #7A6345",
"<. c #7C6A43",
"1. c #7B644A",
"2. c #7D6A4B",
"3. c #696355",
"4. c #6B625C",
"5. c #766858",
"6. c #655D62",
"7. c #5E6864",
"8. c #6D6364",
"9. c #6D686C",
"0. c #716564",
"q. c #736B65",
"w. c #72666D",
"e. c #746B6C",
"r. c #7B6D6E",
"t. c #79726C",
"y. c #776C74",
"u. c #6A7574",
"i. c #7C7374",
"p. c #7A7577",
"a. c #7D737B",
"s. c #8F291E",
"d. c #8C3428",
"f. c #923125",
"g. c #973527",
"h. c #AA3A2B",
"j. c #9C4538",
"k. c #8A5536",
"l. c #A64938",
"z. c #88633C",
"x. c #8F5A4B",
"c. c #A55C4D",
"v. c #836343",
"b. c #8B6945",
"n. c #886847",
"m. c #836C4B",
"M. c #916D4A",
"N. c #89734E",
"B. c #96764C",
"V. c #846B56",
"C. c #9D695D",
"Z. c #877457",
"A. c #9A7B58",
"S. c #A97756",
"D. c #8A7A66",
"F. c #98776F",
"G. c #827778",
"H. c #837C7D",
"J. c #B17568",
"K. c #A58658",
"L. c #8C8368",
"P. c #88827A",
"I. c #978476",
"U. c #B3956A",
"Y. c #C5AC7B",
"T. c #7E7D82",
"R. c #847D81",
"E. c #877E86",
"W. c #748E89",
"Q. c #858282",
"!. c #8A8385",
"~. c #8A8688",
"^. c #8C848A",
"/. c #8C898B",
"(. c #948788",
"). c #928C8D",
"_. c #96938B",
"`. c #8E8A90",
"'. c #928D93",
"]. c #959294",
"[. c #9A9496",
"{. c #9F9893",
"}. c #9B969B",
"|. c #9D9B9C",
" X c #A69583",
".X c #AA9694",
"XX c #A29C9D",
"oX c #A3A09D",
"OX c #B5A598",
"+X c #9E97A0",
"@X c #A29DA3",
"#X c #93ADAC",
"$X c #A4A3A4",
"%X c #A9A4A5",
"&X c #A7A4A9",
"*X c #AAA6AB",
"=X c #ACABAC",
"-X c #B9ACA7",
";X c #B1ADAC",
":X c #B8B3AC",
">X c #AEADB2",
",X c #B2AEB1",
"<X c #B3B3B3",
"1X c #BAB7B6",
"2X c #B8B7B9",
"3X c #BBBBBB",
"4X c #C3AD87",
"5X c #CFB786",
"6X c #C2B2AD",
"7X c #C4B9B4",
"8X c #C3BEBD",
"9X c #C3C1AE",
"0X c #C2C1BE",
"qX c #C9C2BC",
"wX c #BDBBC1",
"eX c #93C0C2",
"rX c #C4C3C3",
"tX c #CBC7C5",
"yX c #CCCCCA",
"uX c #D5CBC5",
"iX c #D3CDCC",
"pX c #D1D2CD",
"aX c #D8D0CE",
"sX c #CFD0D0",
"dX c #D4D4D2",
"fX c #DAD6D4",
"gX c #D9D8D7",
"hX c #DBDAD6",
"jX c #DDDDD9",
"kX c #E1D9D5",
"lX c #E2DEDB",
"zX c #DFE0DB",
"xX c #E4E2DE",
"cX c #E8E3DF",
"vX c #E7E4E1",
"bX c #E9E5E2",
"nX c #EBE9E5",
"mX c #EEEBE8",
"MX c #F0EDEA",
"NX c #F2F1EA",
/* pixels */
"s s h j V V A A A A V V v J { #.*.q.t.H./.`.].}.|.|.|.$X$X$X=X<X3XrXyXyXpXpXdXzXzXI.T @.A b h z z F ",
"d d k k C Z A A A A C B c J { #.;.0.i.E./.].].}.$X$X$X$X$X=X=X=X3XrXyXsXdXgXzXxXnXqXQ >.R G C Z P I ",
"z h z C A A A I A A A j S F K #.=.q.i.!.`.].|.oX$X$X$X&X=X=X=X<X2X3XyXsXhXxXxXnXNXnXI./ @.T H Z T T ",
"z j C C C A A A A A F g S F L #.3.q.G.E.`.].|.|.|.=X=X=X=X<X<X<X<X3XrXdXhXxXcXnXcXNX:XU 3.Q T A Q W ",
"C C C C A A A A A T j j F F L &.;.0.i.H.).].}.|.oX=X=X=X=X=X<X<X<X<XtXdXjXlXcXbXnXNXkX2.>.@.Q Q / Q ",
"Z k Z Z Z Z Z A A G j v F F L #.4.q.a.!.`.[.|.oXoX=X=X#X<X<X<X<X<X<XrXdXhXlXvXvXnXcXmXI.W >.Q Q / / ",
"Z Z P P I Z C A A F g v F F L &.q.t.Q./.).}.$X$X$X=X=X<X<X<X=X<X<X<X3XyXhXcXvXvXcXbXNXOXU >./ / ) / ",
"I x I I I Z C Z A C g v D J K #.8.e.H./.].XXXX$X$X=X=X<X<X<X=X=X<X3XrXyXfXlXvXvXcXcXmX1XU 2.>./ ) ) ",
"U x I T I C C C I B g v S J J  .-.t.W.].].|.$X=X=X=X<X<X=X<X<X=X<X3XrXyXdXjXvXvXbXvXmXqXW >.>.) ) ) ",
"R P P I P C Z C C z g j b J J [ -.a./._.|.$X=X<X<X<X<X<X<X2X<X<X<X2XrXyXdXlXvXvXbXvXmXuX) 2.>.>.<.<.",
"I P P Z C k z x C B g j v D J [ -.i.`.|.$X=X=X<X0X3X<X2XrX<X<X<X1X3XrXpXjXlXvXvXbXxXmXaX>.>.2.) m.<.",
"I x Z Z x x C x Z j g g B J [ o.8.W._.|.$X<X=X3X0X<X<X<X0XrX2X3X3X3XyXhXxXvXvXvXbXbXnXaX1.2.2.2.<.) ",
"I x x x k x x x C g f g j K ..8.G.H.(.}.$X=X3X3X2X3X3X3X<XrX3X<X2XrXyXdXxXbXnXbXbXbXnXaX2.m.2.2.<.) ",
"P P P x C k G L z v J g v K [ *.0.G.^.].$X$X3X<X=X3X<X=X2X3X0X2X2X3XyXfXcXnXMXbXbXxXnXuXN.Z.2.2.N.) ",
"I x Z x k k H o.} c J v v J [ | =.p.i.{.=X<X2X<X<X3X$X=X9X#X<X<X2X1X3XyXjXnXNXnXcXxXnXuXZ.L.Z.2.<.<.",
"I C Z C k Z R ] | c f v v D v s g D  .P.oX<X2X=X<X<X|.=X2X<X3X3X3X=X<XrXdXvXbXnXbXxXbXqX2.D.Z.2.2.) ",
"I Z C x l x +.H ] g j v v D v v h 5 7 @ D G._.XX*X%X/.XX;X1X0X1X3X&X|.oX3XdXxXnXvXxXbX:X XI.m.2.1.>.",
"P Z k k k Z +.b ' v v J F v v K D d 9 < # . 7 #.t.!.].R.P.]./.q...` D o.Q.<XgXvXvXxXxXqXkXaXv.2.,./ ",
"P z z k k x +.h g g D ] ' f e 7 K u.u.8.< 7 3 ; j r.'.G.2 1 . O 2 S -.t.].wXdXxXcXcXjX8XiX8XD.) >./ ",
"P x z k k G +.b g c J ....J 7 - V W.eXu.# - 7 5 O.].&XE.v 5 7 7 [ O.o.5./.wXdXjXcXbXaX8X8X6XD.,.>./ ",
"I Z k x z G +.J b g J | *...v i 7 5 c p c i f 4 y.@X2X.X&.J * 2 5.#X#X#.O P.qXzXvXbX0XtXfX6XV.1.>.Q ",
"T P Z Z x b +.] J g b | 3.8.8.0...[ ' o.] v J v E.>X<X@XG.*.b c > 8.u.u.oXoX1XhXvXvX7XXXiX6X,.1.%.Q ",
"R P P x x x P ] ' v v  .4.i.H.^.).R.G.w.&.6.+.] ).*X2X*X[.(.a.w.3.+.+.{.qXhXjXxXlXxX=XG.tX6Xk.V.%.Q ",
"R I I P x U @.f J D h @.=.8.Q.$X*X|.E.G.w.0.| | ).*X8X8X@X*X@XXX%X%X*X=XtXiXfXxXxXjX-X.XtX6X! V.%.~ ",
"U U U x x l b.Q 7 v b +.#.4._.=X*X'.y.y.w.o.[ ] E.%X0XyX3X;X;X=X<X3XyXyXpXhXhXjXcXiX7X:XiXOX! V.%.Q ",
"I I P x h E z.%.6 v j J  .q.~.XX}.R.a.y.8.] [ o.!.$XrXdXyX,X=X;X=X0XyXyXyXdXzXjXjXtXgXfXfXI.k.v.( ~ ",
"I l l x p n.z.O p k j B  .t.G.i.6.y.w.6.D s J q.].@X8XjX8X'.|.%X*X<XrXyXyXhXjXzXgX=XtXbX7X! m.v.%.~ ",
"P e t l I %.i q n d g j  .3.4.3.6.6.=.} J ;.| i.@X&X3XjX1X).q./.|.$X>XrXyXzXjXzXdX<XsXgXD.^ %.%.%.~ ",
"l d x t d > > a 0 7 s S  ...} } o.` &.X.J 0.O.p.@X@X2XjXkXgXw._ R.].&X3XpXdXdXgXuXqXuX(.Y %.%.^ ^ ~ ",
"d d d i - * p w * 7 j g D D S D } &.&.} g v J r.'.}.,XaXgXrXG.o.` a.|.2XpXpXyXzX%XD.V.Y v.%.%.~ ( ^ ",
"p e i 3 * , r , * 6 v g 8 g D K o.o.X.| ' f d #.R.E.%X%XG.).XX[.-.X./.%X0XrXyXjXOXm $.V.%.~ ^ ^ z.~ ",
"d e 4 & - e r , - 3 g v g S K  .} ' | | { K b d _ =.!.P.{.=X=X@X/.7.} Q.<X$XrXdXU.4X%.E %.^ ^ ( %.%.",
"k s 3 $ 3 0 r > $ - F S S F  .3.` D }  .*.#.#.#. .3.].=X>X;X>X*X+X'.9.y.1X_.7XiXb 4X4X~ ^ ( %.( v.( ",
"k 5 * - e q 0 , $ $ 7 v S F L 5.D X 6 8 S  .*.P.{.].$X<X3X>X>X,X&X}.'.^.,X.X0XuXx.N.5XK.~ %.%.z.z.,.",
"k 4 & > 4 , 0 , $ $ 6 C B H L 5.3.8   8 c 1 1 8 9.q.u.i.T.E.W.T.T.Q.`.+X*X%XtX.XJ.V.4XY.M.^ v.v.n.v.",
"z 6 - , , q 0 , = $ $ 8 F L K 3.*.} 6 D P.P.t._.4./._._.@X'.8 _ E.W.`.*XXX<X8X] C.F.L.5XU.~ v.n.M.n.",
"z 5 > , , , w q $ & & 1 B K H  . .*.[ 7 3.D._.qX:XpXyX9XqX].9.&X>X`.}.&XoX3X-Xy n J.F K.U.A.E v.B.N.",
"h , ; , , q q : $ & & & 5 F H K } ....} c -.t.!.Q._.'.^.H.~.>X>X@X].$X|.<X<XZ.Q O J.:.A.K.U.A.b.z.z.",
"d 5 4 , , ; q q = $ & o & g B K  . .} *.&.6.G.E./.^.^.'.}.*X2X*X'.}.&X$X<X8.V Q O c.C.Q A.b.U.S.K.B.",
"k e p : ; ; q q = o o & & 5 g D o.D ' K &.4.q.G.P.^./.'.=X2X>X@X`.$X@X$X'.  $.@.+ l.J.s v.P U B.K.K.",
"C 4 d 0 q ; : 0 0 o $ $ & * 5 s  .' K K J  .*.8.q.G.H./.$X*X<X@X+X@X].*Xr.# @.c 9 h.J.%.q R k.b.B.K.",
"C # 5 0 0 : : 0 0 @ $ $ $ * & 5 J [ #...8.i.R.E.(.).'.[.}.@X>X@X&X'.XX}.6 z p . q d.c.x.O z v.b.B.A.",
"Z t s p 0 0 ; # q ; o o $ $ & * j [ =.w.i.).'.}.@X@X&X<X>X<X>X@X'.E.'.6.< z % o a h.c.c.u e %.v.M.B.",
"k d x G n 9 ; ; : ; $ $ $ $ $ $ 6 S [ t.G./.[.[.XX$X*X=X2X1X*X}.y.R.R.c d 7 $ & n f.c.c.m n P Y U n.",
"k 2 k l k w q % ; : ; $ $ $ $ $ $ 7 j #.0.G.H.E.!.[.&X&X>X*X@XT.y.a.X.4 h % - * f.g.j.c.s.n b.v.E b.",
"P 3 @ h T M 9 % ; : : $ o $ $ $ @ $ 7 h ] ;.0.;.*.r.!.[.@X'.a.w.T.6.6 h > - X q f.s.l.x.d.M v.M.v.B.",
"i h R h Z ~ a # $ # ; ; $ $ $ $ $ $ $ > 7 f ] J d J ;.D.w.w.9.9.X.6 i 6 - $ : s.g.g.j.j.f.m N.A.E %.",
"z 4 Q Q p T E w ; % ; 0 ; o $ $ $ @ $ $ $ @ % > 6 7 c ` 6.w.8.' * e 6 $ >   n g.g.h.j.m l.N v.A.n.v.",
"h 6 * Z G 6 h l # o $ O % ; $ $ o @ $ $ o @ o . - f ` o.o.} 7 1 7 5 % = X u g.f.s.h.h.g.h.n V M.N.B.",
"@.P d d E k.m E m n 9 u w ; = $ $ $ % $ % $ = * % & = & o @ * - - $ * $ ; m s.m N s.d.f.l.N j Q 1.1."
};
