/* XPM */
static char *result[] = {
/* columns rows colors chars-per-pixel */
"62 93 136 2 ",
"   c black",
".  c #020100",
"X  c #0A0400",
"o  c #0E0600",
"O  c #170A00",
"+  c #1F0D00",
"@  c #200D00",
"#  c #200E00",
"$  c #200E01",
"%  c #371800",
"&  c #371900",
"*  c #361801",
"=  c #371901",
"-  c #371802",
";  c #371902",
":  c #381901",
">  c #3F1A00",
",  c #3E1B00",
"<  c #3E1B01",
"1  c #3E1B02",
"2  c #7D3400",
"3  c #7E3400",
"4  c #7E3500",
"5  c #7F3500",
"6  c #7F3600",
"7  c #7C3403",
"8  c #7C3604",
"9  c #7C3605",
"0  c #7C3607",
"q  c #7C3707",
"w  c #7C3802",
"e  c #7B3807",
"r  c #7C3804",
"t  c #7C3805",
"y  c #7C3806",
"u  c #7C3807",
"i  c #803500",
"p  c #803600",
"a  c #803601",
"s  c #C54F01",
"d  c #C45000",
"f  c #C55000",
"g  c #C55001",
"h  c #C65100",
"j  c #C75200",
"k  c #D75C0B",
"l  c #D65E0B",
"z  c #D95A0A",
"x  c #D95A0D",
"c  c #E95B00",
"v  c #EE5E00",
"b  c #EF5F00",
"n  c #FE5E00",
"m  c #D86307",
"M  c #D96307",
"N  c #DA6504",
"B  c #D8640A",
"V  c #D9620E",
"C  c #D9630F",
"Z  c #D86310",
"A  c #D86410",
"S  c #D96410",
"D  c #D96411",
"F  c #F06000",
"G  c #F16000",
"H  c #FB6100",
"J  c #FC6200",
"K  c #FF6300",
"L  c #F4770F",
"P  c #F46C12",
"I  c #F16F19",
"U  c #F67116",
"Y  c #F37816",
"T  c #F5721A",
"R  c #F6771A",
"E  c #F6771B",
"W  c #F7771B",
"Q  c #F6771C",
"!  c #F7771C",
"~  c #F6751E",
"^  c #F6761E",
"/  c #F7761E",
"(  c #F87418",
")  c #FA7618",
"_  c #F27819",
"`  c #F7781A",
"'  c #F6781B",
"]  c #F7781B",
"[  c #F7791C",
"{  c #F7791D",
"}  c #F47A1E",
"|  c #F57C1F",
" . c #F8791E",
".. c #F17920",
"X. c #F57820",
"o. c #F27D22",
"O. c #F27A26",
"+. c #F47E27",
"@. c #F67F27",
"#. c #F37E29",
"$. c #F47D2C",
"%. c #EE812F",
"&. c #F58028",
"*. c #F58128",
"=. c #F5822B",
"-. c #F8832B",
";. c #EF8235",
":. c #F38730",
">. c #F78832",
",. c #F78833",
"<. c #F78933",
"1. c #F78A32",
"2. c #F68A37",
"3. c #F88832",
"4. c #F88933",
"5. c #F98A36",
"6. c #F6913F",
"7. c #F39340",
"8. c #F39245",
"9. c #F29346",
"0. c #F39346",
"q. c #F49245",
"w. c #F49345",
"e. c #F2984F",
"r. c #F39851",
"t. c #F49E5B",
"y. c #F4A568",
"u. c #F1A76E",
"i. c #F3A86C",
"p. c #F3A86D",
"a. c #F3A96E",
"s. c #F4A86C",
"d. c #F4A96D",
"f. c #F5AB74",
"g. c #F2AE77",
"h. c None",
/* pixels */
"h.h.h.h.h.h.h.h.h.h.h.h.h.h.h.h.h.h.h.h.h.h.h.h.h.h.h.h.h.h.h.h.h.h.h.h.h.h.h.h.h.h.h.h.h.h.h.h.h.h.h.h.h.h.h.h.h.h.h.h.h.h.",
"h.;.T X.~ ^ / / / / / / / / / / / / / / / / / / / / / / / / / / ~ / / / / / / } I g.h.h.h.h.h.h.h.h.h.h.h.h.h.h.h.h.h.h.h.h.",
"h.( G i h j j j j j j j j j j j j j j j j j j j j j j j j j j j j j j i j j j # n y.h.h.h.h.h.h.h.h.h.h.h.h.h.h.h.h.h.h.h.h.",
"h. .# o .                                                                 o . : s a.h.h.h.h.h.h.h.h.h.h.h.h.h.h.h.h.h.h.h.h.",
"h.! 5 . X . . . . . . . . . . . . . . . . . . . . . . . . . . . . . . . . . # o J s.h.h.h.h.h.h.h.h.h.h.h.h.h.h.h.h.h.h.h.h.",
"h.' 6                                                                       # o H d.h.h.h.h.h.h.h.h.h.h.h.h.h.h.h.h.h.h.h.h.",
"h.W i . . # # #   #       .   # # # # # # # # # # # # # # # # # # # # # # . # o J d.h.h.h.h.h.h.h.h.h.h.h.h.h.h.h.h.h.h.h.h.",
"h...+   o . . . X w X o # . #                                             . # o J d.h.h.h.h.h.h.h.h.h.h.h.h.h.h.h.h.h.h.h.h.",
"h.{ @ # . # # # o o # = O o . .                                             # o J d.h.h.h.h.h.h.h.h.h.h.h.h.h.h.h.h.h.h.h.h.",
"h.) , O X o o # * a # O X o . .                                           . # o J d.h.h.h.h.h.h.h.h.h.h.h.h.h.h.h.h.h.h.h.h.",
"h.| w B r m M t N < L O o % . .                                             # o J d.h.h.h.h.h.h.h.h.h.h.h.h.h.h.h.h.h.h.h.h.",
"h.h.h.h.h.h.h.h.h.h.h.o.h o . .                                             # o J d.h.h.h.h.h.h.h.h.h.h.h.h.h.h.h.h.h.h.h.h.",
"h.h.h.h.h.h.h.h.h.h.h.=.f o #                                               # o J d.h.h.h.h.h.h.h.h.h.h.h.h.h.h.h.h.h.h.h.h.",
"h.h.h.h.h.h.h.h.h.h.h.@.3 o . #                                             # o J d.h.h.h.h.h.h.h.h.h.h.h.h.h.h.h.h.h.h.h.h.",
"h.h.h.h.h.h.h.h.h.h.h.&.f o .                                               # o J d.h.h.h.h.h.h.h.h.h.h.h.h.h.h.h.h.h.h.h.h.",
"h.h.h.h.h.h.h.h.h.h.h.&.3   # . . #   .   #   . #                           # o J d.h.h.h.h.h.h.h.h.h.h.h.h.h.h.h.h.h.h.h.h.",
"h.h.h.h.h.h.h.h.h.h.h.@.f o .       #   #   #     #                         # o J d.h.h.h.h.h.h.h.h.h.h.h.h.h.h.h.h.h.h.h.h.",
"h.h.h.h.h.h.h.h.h.h.h.*.4   # . . # o #   # o . #                           # o J d.h.h.h.h.h.h.h.h.h.h.h.h.h.h.h.h.h.h.h.h.",
"h.h.h.h.h.h.h.h.h.h.h.#.@ ; o o o o & - o X o # . .                         # o J d.h.h.h.h.h.h.h.h.h.h.h.h.h.h.h.h.h.h.h.h.",
"h.h.h.h.h.h.h.h.h.h.h.+.5 . # a a # # & 5 & O . o #                         # o J d.h.h.h.h.h.h.h.h.h.h.h.h.h.h.h.h.h.h.h.h.",
"h.h.h.h.h.h.h.h.h.h.h.%.7 9 8 8 8 8 1 1 l O $ .   #                         # o J d.h.h.h.h.h.h.h.h.h.h.h.h.h.h.h.h.h.h.h.h.",
"h.h.h.h.h.h.h.h.h.h.h.h.h.h.h.h.h.h.h.h.h.-.3 o . #                         # o J d.h.h.h.h.h.h.h.h.h.h.h.h.h.h.h.h.h.h.h.h.",
"h.h.h.h.h.h.h.h.h.h.h.h.h.h.h.h.h.h.h.h.h.5.> o # .                         # o J d.h.h.h.h.h.h.h.h.h.h.h.h.h.h.h.h.h.h.h.h.",
"h.h.h.h.h.h.h.h.h.h.h.h.h.h.h.h.h.h.h.h.h.>.4 o # X                         # o J d.h.h.h.h.h.h.h.h.h.h.h.h.h.h.h.h.h.h.h.h.",
"h.h.h.h.h.h.h.h.h.h.h.h.h.h.h.h.h.h.h.h.h.4.3 o . .                         # o J d.h.h.h.h.h.h.h.h.h.h.h.h.h.h.h.h.h.h.h.h.",
"h.h.h.h.h.h.h.h.h.h.h.h.h.h.h.h.h.h.h.h.h.4.4 o # .                         # o J d.h.h.h.h.h.h.h.h.h.h.h.h.h.h.h.h.h.h.h.h.",
"h.h.h.h.h.h.h.h.h.h.h.h.h.h.h.h.h.h.h.h.h.4.4 o # .                         # o J d.h.h.h.h.h.h.h.h.h.h.h.h.h.h.h.h.h.h.h.h.",
"h.h.h.h.h.h.h.h.h.h.h.h.h.h.h.h.h.h.h.h.h.4.4 o # .                         # o J d.h.h.h.h.h.h.h.h.h.h.h.h.h.h.h.h.h.h.h.h.",
"h.h.h.h.h.h.h.h.h.h.h.h.h.h.h.h.h.h.h.h.h.4.4 o # .                         # o J d.h.h.h.h.h.h.h.h.h.h.h.h.h.h.h.h.h.h.h.h.",
"h.h.h.h.h.h.h.h.h.h.h.h.h.h.h.h.h.h.h.h.h.4.4 o # .                         # o J d.h.h.h.h.h.h.h.h.h.h.h.h.h.h.h.h.h.h.h.h.",
"h.h.h.h.h.h.h.h.h.h.h.h.h.h.h.h.h.h.h.h.h.4.4 o # .                         # o J d.h.h.h.h.h.h.h.h.h.h.h.h.h.h.h.h.h.h.h.h.",
"h.h.h.h.h.h.h.h.h.h.h.h.h.h.h.h.h.h.h.h.h.4.4 o # .                         # o J d.h.h.h.h.h.h.h.h.h.h.h.h.h.h.h.h.h.h.h.h.",
"h.h.h.h.h.h.h.h.h.h.h.h.h.h.h.h.h.h.h.h.h.4.4 o # .                         # o J d.h.h.h.h.h.h.h.h.h.h.h.h.h.h.h.h.h.h.h.h.",
"h.h.h.h.h.h.h.h.h.h.h.h.h.h.h.h.h.h.h.h.h.4.4 o # .                         # o J d.h.h.h.h.h.h.h.h.h.h.h.h.h.h.h.h.h.h.h.h.",
"h.h.h.h.h.h.h.h.h.h.h.h.h.h.h.h.h.h.h.h.h.4.4 o # .                         # o J d.h.h.h.h.h.h.h.h.h.h.h.h.h.h.h.h.h.h.h.h.",
"h.h.h.h.h.h.h.h.h.h.h.h.h.h.h.h.h.h.h.h.h.4.4 o # .                         # o J d.h.h.h.h.h.h.h.h.h.h.h.h.h.h.h.h.h.h.h.h.",
"h.h.h.h.h.h.h.h.h.h.h.h.h.h.h.h.h.h.h.h.h.4.4 o # .                         # o J d.h.h.h.h.h.h.h.h.h.h.h.h.h.h.h.h.h.h.h.h.",
"h.h.h.h.h.h.h.h.h.h.h.h.h.h.h.h.h.h.h.h.h.4.4 o # .                         # o J d.h.h.h.h.h.h.h.h.h.h.h.h.h.h.h.h.h.h.h.h.",
"h.h.h.h.h.h.h.h.h.h.h.h.h.h.h.h.h.h.h.h.h.4.4 o # .                         # o J d.h.h.h.h.h.h.h.h.h.h.h.h.h.h.h.h.h.h.h.h.",
"h.h.h.h.h.h.h.h.h.h.h.h.h.h.h.h.h.h.h.h.h.4.4 o # .                         # o J d.h.h.h.h.h.h.h.h.h.h.h.h.h.h.h.h.h.h.h.h.",
"h.h.h.h.h.h.h.h.h.h.h.h.h.h.h.h.h.h.h.h.h.4.4 o # .                         # o J d.h.h.h.h.h.h.h.h.h.h.h.h.h.h.h.h.h.h.h.h.",
"h.h.h.h.h.h.h.h.h.h.h.h.h.h.h.h.h.h.h.h.h.4.4 o # .                         # o J d.h.h.h.h.h.h.h.h.h.h.h.h.h.h.h.h.h.h.h.h.",
"h.h.h.h.h.h.h.h.h.h.h.h.h.h.h.h.h.h.h.h.h.4.4 o # .                         # o J d.h.h.h.h.h.h.h.h.h.h.h.h.h.h.h.h.h.h.h.h.",
"h.h.h.h.h.h.h.h.h.h.h.h.h.h.h.h.h.h.h.h.h.4.4 o # .                         # o J d.h.h.h.h.h.h.h.h.h.h.h.h.h.h.h.h.h.h.h.h.",
"h.h.h.h.h.h.h.h.h.h.h.h.h.h.h.h.h.h.h.h.h.4.4 o # .                         # o J d.h.h.h.h.h.h.h.h.h.h.h.h.h.h.h.h.h.h.h.h.",
"h.h.h.h.h.h.h.h.h.h.h.h.h.h.h.h.h.h.h.h.h.4.4 o # .                         # o J d.h.h.h.h.h.h.h.h.h.h.h.h.h.h.h.h.h.h.h.h.",
"h.h.h.h.h.h.h.h.h.h.h.h.h.h.h.h.h.h.h.h.h.4.4 o # .                         # o J d.h.h.h.h.h.h.h.h.h.h.h.h.h.h.h.h.h.h.h.h.",
"h.h.h.h.h.h.h.h.h.h.h.h.h.h.h.h.h.h.h.h.h.4.4 o # .                         # o J d.h.h.h.h.h.h.h.h.h.h.h.h.h.h.h.h.h.h.h.h.",
"h.h.h.h.h.h.h.h.h.h.h.h.h.h.h.h.h.h.h.h.h.4.4 o # .                         # o J d.h.h.h.h.h.h.h.h.h.h.h.h.h.h.h.h.h.h.h.h.",
"h.h.h.h.h.h.h.h.h.h.h.h.h.h.h.h.h.h.h.h.h.4.4 o # .                         # o J d.h.h.h.h.h.h.h.h.h.h.h.h.h.h.h.h.h.h.h.h.",
"h.h.h.h.h.h.h.h.h.h.h.h.h.h.h.h.h.h.h.h.h.4.4 o # .                         # o J d.h.h.h.h.h.h.h.h.h.h.h.h.h.h.h.h.h.h.h.h.",
"h.h.h.h.h.h.h.h.h.h.h.h.h.h.h.h.h.h.h.h.h.4.4 o # .                         # o J d.h.h.h.h.h.h.h.h.h.h.h.h.h.h.h.h.h.h.h.h.",
"h.h.h.h.h.h.h.h.h.h.h.h.h.h.h.h.h.h.h.h.h.4.4 o # .                         # o J d.h.h.h.h.h.h.h.h.h.h.h.h.h.h.h.h.h.h.h.h.",
"h.h.h.h.h.h.h.h.h.h.h.h.h.h.h.h.h.h.h.h.h.4.4 o # .                         # o J d.h.h.h.h.h.h.h.h.h.h.h.h.h.h.h.h.h.h.h.h.",
"h.h.h.h.h.h.h.h.h.h.h.h.h.h.h.h.h.h.h.h.h.4.4 o # .                         # o J d.h.h.h.h.h.h.h.h.h.h.h.h.h.h.h.h.h.h.h.h.",
"h.h.h.h.h.h.h.h.h.h.h.h.h.h.h.h.h.h.h.h.h.4.4 o # .                         # o J d.h.h.h.h.h.h.h.h.h.h.h.h.h.h.h.h.h.h.h.h.",
"h.h.h.h.h.h.h.h.h.h.h.h.h.h.h.h.h.h.h.h.h.4.4 o # .                         # o J d.h.h.h.h.h.h.h.h.h.h.h.h.h.h.h.h.h.h.h.h.",
"h.h.h.h.h.h.h.h.h.h.h.h.h.h.h.h.h.h.h.h.h.4.4 o # .                         # o J d.h.h.h.h.h.h.h.h.h.h.h.h.h.h.h.h.h.h.h.h.",
"h.h.h.h.h.h.h.h.h.h.h.h.h.h.h.h.h.h.h.h.h.4.4 o # .                         # o J d.h.h.h.h.h.h.h.h.h.h.h.h.h.h.h.h.h.h.h.h.",
"h.h.h.h.h.h.h.h.h.h.h.h.h.h.h.h.h.h.h.h.h.4.4 o # .                         # o J d.h.h.h.h.h.h.h.h.h.h.h.h.h.h.h.h.h.h.h.h.",
"h.h.h.h.h.h.h.h.h.h.h.h.h.h.h.h.h.h.h.h.h.4.4 o # .                         # o J d.h.h.h.h.h.h.h.h.h.h.h.h.h.h.h.h.h.h.h.h.",
"h.h.h.h.h.h.h.h.h.h.h.h.h.h.h.h.h.h.h.h.h.4.4 o # .                         # o J d.h.h.h.h.h.h.h.h.h.h.h.h.h.h.h.h.h.h.h.h.",
"h.h.h.h.h.h.h.h.h.h.h.h.h.h.h.h.h.h.h.h.h.4.4 o # .                         # o J d.h.h.h.h.h.h.h.h.h.h.h.h.h.h.h.h.h.h.h.h.",
"h.h.h.h.h.h.h.h.h.h.h.h.h.h.h.h.h.h.h.h.h.4.4 o # .                         # o J d.h.h.h.h.h.h.h.h.h.h.h.h.h.h.h.h.h.h.h.h.",
"h.h.h.h.h.h.h.h.h.h.h.h.h.h.h.h.h.h.h.h.h.4.4 o # .                         # o J d.h.h.h.h.h.h.h.h.h.h.h.h.h.h.h.h.h.h.h.h.",
"h.h.h.h.h.h.h.h.h.h.h.h.h.h.h.h.h.h.h.h.h.4.4 o # .                         # o J d.h.h.h.h.h.h.h.h.h.h.h.h.h.h.h.h.h.h.h.h.",
"h.h.h.h.h.h.h.h.h.h.h.h.h.h.h.h.h.h.h.h.h.<.3 o . .                         # o J p.h.h.h.h.h.h.h.h.h.h.h.h.h.h.h.h.h.h.h.h.",
"h.h.h.h.h.h.h.h.h.h.h.h.h.h.h.h.h.h.h.h.h.3.4 o # .                         # o H d.h.h.h.h.h.h.h.h.h.h.h.h.h.h.h.h.h.h.h.h.",
"h.h.h.h.h.h.h.h.h.h.h.h.h.h.h.h.h.h.h.h.h.,.3 o # .                       . # o H i.h.h.h.h.h.h.h.h.h.h.h.h.h.h.h.h.h.h.h.h.",
"h.h.h.h.h.h.h.h.h.h.h.h.h.h.h.h.h.h.h.h.h.1.d o . #                         # = v u.h.h.h.h.h.h.h.h.h.h.h.h.h.h.h.h.h.h.h.h.",
"h.h.h.h.h.h.h.h.h.h.h.h.h.h.h.h.h.h.h.h.h.2.F = # .                       . . = c f.h.h.h.h.h.h.h.h.h.h.h.h.h.h.h.h.h.h.h.h.",
"h.h.h.h.h.h.h.h.h.h.h.h.h.h.h.h.h.h.h.h.h.:.3   . .                       . # o 2 t.h.h.h.h.h.h.h.h.h.h.h.h.h.h.h.h.h.h.h.h.",
"h.O.k u y u u u u u u u u u u u u y e V 0 o o .   .                         # %   - U 0 q y u u u u u u u u u u u y u u z e.",
"h._ + # # # # # # # # # # # # # # # @ % % O # o # .                       . . # o o X O X # # # # # # # # # # # # # #   b 7.",
"h.Q a   o                           # . o # . o .                         #   # .   # .                       .     . o g q.",
"h.` 6   o                         #     #     #   #                         #                           #   # # # # . . 3 9.",
"h.E p     #                     #   # .   . .   #                         #   #     . .   .             #   # # # # .   f 8.",
"h.] p                                                                                                   #   # # # # .   f 0.",
"h.] p                                                                                                   #   # a # # .   f 0.",
"h.] p                                                                                                   #   # # # # .   f 0.",
"h.] p                                                                                                         #   # .   f 0.",
"h.] p                                                                                                   #   # # # # .   f 0.",
"h.] p                                                                                                         #   # .   f 0.",
"h.] p                                                                                                         #   # .   f 0.",
"h.] p                                                                                                         #   # .   f 0.",
"h.] p                                                                                                         #   # .   f 0.",
"h.] p                                                                                                         #   # .   f 0.",
"h.] i .   #                                                                                                   #   . .   f 8.",
"h.R 6   .   . . . . . . . . . . . . . . . . . . . . . . . . . . . . . . . . . . . . . . . . . . . . . . . . . # . # X # 3 9.",
"h.[ a   o                                                                                                             o g w.",
"h.Y 4 # @ @ # # # # # # # # # # # # # # # # # # # # # # # # # # # # # # # # # # # # # # # # # # # # # # # # # # # # @ o K 6.",
"h.$.P D Z Z S S S S S S S S S S S S S S S S S S S S S S S S S S S S S S S S S S S S S S S S S S S S S S S S S S S C Z A x r.",
"h.h.h.h.h.h.h.h.h.h.h.h.h.h.h.h.h.h.h.h.h.h.h.h.h.h.h.h.h.h.h.h.h.h.h.h.h.h.h.h.h.h.h.h.h.h.h.h.h.h.h.h.h.h.h.h.h.h.h.h.h.h."
};
