/* XPM */
static char *result[] = {
/* columns rows colors chars-per-pixel */
"62 93 180 2 ",
"   c black",
".  c #020100",
"X  c #0A0400",
"o  c #0E0600",
"O  c #160A00",
"+  c #170A00",
"@  c #200D00",
"#  c #200E00",
"$  c #200E01",
"%  c #281100",
"&  c #371800",
"*  c #371900",
"=  c #361801",
"-  c #371801",
";  c #371901",
":  c #371802",
">  c #371902",
",  c #381900",
"<  c #381901",
"1  c #3E1A00",
"2  c #3E1B00",
"3  c #3E1B02",
"4  c #7B3300",
"5  c #7C3300",
"6  c #7D3300",
"7  c #7C3301",
"8  c #7C3302",
"9  c #7E3400",
"0  c #7F3500",
"q  c #7F3501",
"w  c #7F3600",
"e  c #7B3604",
"r  c #7B3704",
"t  c #7B3605",
"y  c #7B3705",
"u  c #7C3505",
"i  c #7C3604",
"p  c #7D3606",
"a  c #7C3707",
"s  c #7D3901",
"d  c #7D3903",
"f  c #7B3805",
"g  c #7C3904",
"h  c #7C3806",
"j  c #7C3807",
"k  c #7C3808",
"l  c #803500",
"z  c #803501",
"x  c #803600",
"c  c #9C3F00",
"v  c #9D3F00",
"b  c #9B4000",
"n  c #9B4100",
"m  c #9C4000",
"M  c #C34E00",
"N  c #C54F00",
"B  c #C44F01",
"V  c #C45000",
"C  c #C55000",
"Z  c #C65000",
"A  c #C65100",
"S  c #C75200",
"D  c #C75202",
"F  c #C55107",
"G  c #D55708",
"H  c #EB5900",
"J  c #ED5D00",
"K  c #EC5E00",
"L  c #ED5E00",
"P  c #EE5E00",
"I  c #EE5F00",
"U  c #EF5F00",
"Y  c #EE5E01",
"T  c #EF5F02",
"R  c #F75B00",
"E  c #D66207",
"W  c #D66208",
"Q  c #D6600A",
"!  c #DC660B",
"~  c #DA610F",
"^  c #D8620E",
"/  c #D8630F",
"(  c #D9630F",
")  c #D8640E",
"_  c #D9640E",
"`  c #D9650E",
"'  c #D8640F",
"]  c #D9640F",
"[  c #D9650F",
"{  c #DA6110",
"}  c #D96210",
"|  c #D96310",
" . c #D86410",
".. c #D96410",
"X. c #D86411",
"o. c #F06000",
"O. c #FB6100",
"+. c #FC6000",
"@. c #FC6001",
"#. c #FC6200",
"$. c #FD6300",
"%. c #FF6200",
"&. c #FE6400",
"*. c #FF6400",
"=. c #F26F0A",
"-. c #F0690F",
";. c #F06E0E",
":. c #F0730B",
">. c #F3700C",
",. c #F5730C",
"<. c #F4720D",
"1. c #F7740F",
"2. c #F86A12",
"3. c #F66C19",
"4. c #EF761B",
"5. c #EF791F",
"6. c #F67310",
"7. c #F67313",
"8. c #F67410",
"9. c #F67411",
"0. c #F27714",
"q. c #F77515",
"w. c #F3761E",
"e. c #F6751D",
"r. c #F7761D",
"t. c #F6751E",
"y. c #F7751E",
"u. c #F6761E",
"i. c #F7761E",
"p. c #F6771F",
"a. c #F8731A",
"s. c #F8771F",
"d. c #F57620",
"f. c #F07C2C",
"g. c #F68E3C",
"h. c #F8893D",
"j. c #F88B3E",
"k. c #F6903C",
"l. c #F78C40",
"z. c #F78D40",
"x. c #F78C41",
"c. c #F68D41",
"v. c #F78D41",
"b. c #F28E4B",
"n. c #F29048",
"m. c #F3934F",
"M. c #EE9651",
"N. c #F39352",
"B. c #F49352",
"V. c #F49353",
"C. c #F39552",
"Z. c #F39453",
"A. c #F09753",
"S. c #F49752",
"D. c #F8A766",
"F. c #F7B37C",
"G. c #ECB584",
"H. c #F0B683",
"J. c #F5B581",
"K. c #F4B683",
"L. c #F3B684",
"P. c #F3B784",
"I. c #F3B685",
"U. c #F4B685",
"Y. c #F4B785",
"T. c #F7B786",
"R. c #F2B981",
"E. c #F4B885",
"W. c #F1B38B",
"Q. c #F5B98A",
"!. c #F3BC8B",
"~. c #F5BC8B",
"^. c #F9B988",
"/. c #F8BD8D",
"(. c #EFBC92",
"). c #F3BE93",
"_. c #F7BE93",
"`. c #F7BF94",
"'. c #F8BF94",
"]. c None",
/* pixels */
"].].].].].].].].].].].].].].].].].].].].].].].].].].].].].].].].].].].].].].].].].].].].].].].].].].].].].].].].].].].].].].",
"!.3.w.p.d.y.u.i.i.i.i.i.i.i.i.i.i.i.i.i.i.i.i.i.i.i.i.i.i.i.i.i.i.i.i.i.i.i.i.i.i.i.i.i.i.i.i.i.i.i.i.i.i.i.t.e.r.r.s.a.f.].",
"K.+.# 0 S 0 S S S S S S S S S S S S S S S S S S S S S S S S S S S S S S S S S S S S S S S S S S S S S S S S S S l S w S j ].",
"E.B < o . o .                                                                                               .     . o . 7.].",
"P.K o # # . # . . . . . . . . . . . . . . . . . . . . . . . . . . . . . . . . . . . . . . . . . . . . . . # . # X # X x / ].",
"U.J o . .   .                                                                                             .   . . # . x ) ].",
"Y.K o . # . # # # # # # # # # # # # # # # # # # # # # # # # # # # # # # # # # # # # # # # # # # # # # # # .   .   .   x ' ].",
"Y.L o X .   .                                                                                               .   . X o # [ ].",
"Y.P   o .   .                                                                                             . # . # #   x ' ].",
"Y.L o X .   .                                                                                               .   . . o # [ ].",
"Y.P   X .   .                                                                                               .   . . o # [ ].",
"Y.P   X .   .                                                                                               .   . . o # [ ].",
"Y.P   X .   .                                                                                               .   . . o # [ ].",
"Y.P   X .   .                                                                                               .   . . o # [ ].",
"Y.P   X .   .                                                                                               .   . . o # [ ].",
"P.L o X # . # # # # # # # # # # # # # # # # # # # # # # # # # # # # # # # # . #   .         #               .   . . o # [ ].",
"U.#.  o .   .                                                                   #   # #   #                 .   . . o # [ ].",
"R.m d # # . # . . . . . . . . . . . . . . . . . . . . . . . . . . . . . . . . # ; .   o #   # .             .   . . o # [ ].",
"T.@.; o & o o o o o o o o o o o o o o o o o o o o o o o o o o o o o o o o o X o - X o o X   .               .   . . o # [ ].",
"J.J   - # # # # # # # # # # # # # # # # # # # # # # # # # # # # # # # # # # # # x # o X o # o #             .   . . o # [ ].",
"W.G F u e 3 i i i i i i i i i i i i i i i i i i i i i i i i i i i i i i i i i i ;.% o @ > # . #             .   . . o # [ ].",
"].].].].].].].].].].].].].].].].].].].].].].].].].].].].].].].].].].].].].].].].].g 2 . + + # .             .   . . o # [ ].",
"].].].].].].].].].].].].].].].].].].].].].].].].].].].].].].].].].].].].].].].].].=.o o +   . .             .   . . o # [ ].",
"].].].].].].].].].].].].].].].].].].].].].].].].].].].].].].].].].].].].].].].].].r x o . # X               .   . . o # [ ].",
"].].].].].].].].].].].].].].].].].].].].].].].].].].].].].].].].].].].].].].].].].W # o X . . .             .   . . o # [ ].",
"].].].].].].].].].].].].].].].].].].].].].].].].].].].].].].].].].].].].].].].].].f x o . # .               .   . . o # [ ].",
"].].].].].].].].].].].].].].].].].].].].].].].].].].].].].].].].].].].].].].].].].f x o . # .               .   . . o # [ ].",
"].].].].].].].].].].].].].].].].].].].].].].].].].].].].].].].].].].].].].].].].].f x o . # .               .   . . o # [ ].",
"].].].].].].].].].].].].].].].].].].].].].].].].].].].].].].].].].].].].].].].].].f x o . # .               .   . . o # [ ].",
"].].].].].].].].].].].].].].].].].].].].].].].].].].].].].].].].].].].].].].].].].f x o . # .               .   . . o # [ ].",
"].].].].].].].].].].].].].].].].].].].].].].].].].].].].].].].].].].].].].].].].].f x o . # .               .   . . o # [ ].",
"].].].].].].].].].].].].].].].].].].].].].].].].].].].].].].].].].].].].].].].].].f x o . # .               .   . . o # [ ].",
"].].].].].].].].].].].].].].].].].].].].].].].].].].].].].].].].].].].].].].].].].f x o . # .               .   . . o # [ ].",
"].].].].].].].].].].].].].].].].].].].].].].].].].].].].].].].].].].].].].].].].].f x o . # .               .   . . o # [ ].",
"].].].].].].].].].].].].].].].].].].].].].].].].].].].].].].].].].].].].].].].].].f x o . # .               .   . . o # [ ].",
"].].].].].].].].].].].].].].].].].].].].].].].].].].].].].].].].].].].].].].].].].f x o . # .               .   . . o # [ ].",
"].].].].].].].].].].].].].].].].].].].].].].].].].].].].].].].].].].].].].].].].].y w o X # . #             .   . . o # [ ].",
"].].].].].].].].].].].].].].].].].].].].].].].].].].].].].].].].].].].].].].].].].E x o X . #               .   . . o # [ ].",
"].].].].].].].].].].].].].].].].].].].].].].].].].].].].].].].].].].].].].].].].].>.# & + x . #             .   . . o # [ ].",
"].].].].].].].].].].].].].].].].].].].].].].].].].].].].].].].].].].].].].].].].].Q 0 s * . . .             .   . . o # [ ].",
"].].].].].].].].].].].].].].].].].].].].].].].].].].].].].].].].].].].].].].].].].:.# ; D . . .             .   . . o # [ ].",
"].].].].].].].].].].].^./.~.).'.`.'.'.'.'.'.'.'.'.'.'.'.'.'.'.'.'.'.'.'.'.'._.].F.: @ ; o o # .             .   . . o # [ ].",
"].].].].].].].].].].].R 8 I P I P U U U U U U U U U U U U U U U U U U U U U I I c + o % & o . .             .   . . o # [ ].",
"].].].].].].].].].].].7 ! o o                                                 o   o . . # #   #             .   . . o # [ ].",
"].].].].].].].].].].].6 o x . # .                                                 #         #               .   . . o # [ ].",
"].].].].].].].].].].].5 o #   .                                             # . #   . . . #   #             .   . . o # [ ].",
"].].].].].].].].].].].6 o # o .                                                                             .   . . o # [ ].",
"].].].].].].].].].].].v o # . # #                                                                           .   . . o # [ ].",
"].].].].].].].].].].].6 o # o #                                                                             .   . . o # [ ].",
"].].].].].].].].].].].6 + # o . .                                                                           .   . . o # [ ].",
"].].].].].].].].].].].b , % +   #                                                                           .   . . o # [ ].",
"].].].].].].].].].].D.V o O o   #                                                                           .   . . o # [ ].",
"G.H 4 5 b 4 4 4 4 n 1 + + + X . .                                                                           .   . . o # [ ].",
"Q.T > o   # #   # $ + ; q . o .                                                                             .   . . o # [ ].",
"L.M o X # . # . # .   #     #   #                                                                           .   . . o # [ ].",
"Y.L o X # . # . # . . . . .   .                                                                             .   . . o # [ ].",
"Y.L o X .   .                 #   . #     # . .   # . # # # # # # # # # # # # # # # # # # # # # # # # # # # # # . .   # ` ].",
"Y.M ; # # . # # # #   #               #                                                                     .   # X o # ' ].",
"Y.L o X .   .                 #   . # o . # # # . # . # # # # # # # # # # # # # # # # # # # # # # # # # # # # # . .   x _ ].",
"Y.#.  o .   .                 #   # # o o . ; - o o o o o o o o o o o o o o o o o o o o o o o o o o o o o o o   o o o   1.].",
"Y.L o X .   .                 #   # # # A C Z C 9 o.C Z Z Z Z Z Z Z Z Z Z Z Z Z Z Z Z Z Z Z Z Z Z Z Z Z Z Z C o.U U C &.t ].",
"Y.P   X .   .               # # . . X # 0.b.h.g.k.x.z.v.v.v.v.v.v.v.v.v.v.v.v.v.v.v.v.v.v.v.v.v.v.v.v.v.v.v.l.v.x.l.c.j.m.].",
"Y.P   X .   .                 #   . o *.C.].].].].].].].].].].].].].].].].].].].].].].].].].].].].].].].].].].].].].].].].].",
"Y.P   X .   .               # # . .   $.A.].].].].].].].].].].].].].].].].].].].].].].].].].].].].].].].].].].].].].].].].].",
"Y.P   X .   .               # # . . o C Z.].].].].].].].].].].].].].].].].].].].].].].].].].].].].].].].].].].].].].].].].].",
"Y.P   X .   .               #   X # o U B.].].].].].].].].].].].].].].].].].].].].].].].].].].].].].].].].].].].].].].].].].",
"Y.P   X .   .               # # . . o U Z.].].].].].].].].].].].].].].].].].].].].].].].].].].].].].].].].].].].].].].].].].",
"Y.P   X .   .               #   X # o C V.].].].].].].].].].].].].].].].].].].].].].].].].].].].].].].].].].].].].].].].].].",
"Y.P   X .   .               #   X . o N N.].].].].].].].].].].].].].].].].].].].].].].].].].].].].].].].].].].].].].].].].].",
"Y.P   X .   .               #   . . o C M.].].].].].].].].].].].].].].].].].].].].].].].].].].].].].].].].].].].].].].].].].",
"Y.P   X .   .                     # o %.S.].].].].].].].].].].].].].].].].].].].].].].].].].].].].].].].].].].].].].].].].].",
"Y.P   X .   .             # #   . # o C n.].].].].].].].].].].].].].].].].].].].].].].].].].].].].].].].].].].].].].].].].].",
"Y.P   X .   .                     . # o = { k ^ 2.h j j j j j j j j j j j j j j j j j j j j j j j j j j j h j h j a j p 4.].",
"Y.P   X .   .             #     # . . + + w q S % # # # # # # # # # # # # # # # # # # # # # # # # # # # # # # # # # @ z ,.].",
"Y.P   X .   .             #     # #   # # o o o *                                                               o . o # 8.].",
"Y.P   X .   .                       #     #   # #   #                                                       X   # . o # ] ].",
"Y.P   X .   .             #     # #   . #   .                                                             . . . . . o x 6.].",
"Y.P   X .   .                                                                                               .   . . o # [ ].",
"Y.P   X .   .                                                                                               .   . . o # [ ].",
"Y.P   X .   .                                                                                               .   . . o # [ ].",
"Y.P   X .   .                                                                                               .   . . o # [ ].",
"Y.P   X .   .                                                                                               .   . . o # [ ].",
"Y.P   X .   .                                                                                               .   . . o # [ ].",
"Y.P   X .   .                                                                                               .   . . o # [ ].",
"Y.P   X .   .                                                                                               .   . . o # [ ].",
"Y.P   X .   .                                                                                               .   . . o # [ ].",
"Y.P   X .   .                                                                                               .   . . o # [ ].",
"I.P o X .   .                                                                                               . . . . o x 6.].",
"Y.L   X . . . . . . . . . . . . . . . . . . . . . . . . . . . . . . . . . . . . . . . . . . . . . . . . . # X   X . o # ' ].",
"I.Y o + .   .                                                                                             o     o . o # 9.].",
"H.O.; # + @ @ # # # # # # # # # # # # # # # # # # # # # # # # # # # # # # # # # # # # # # # # # # # # # # # # @ # # @ S <.].",
"(.-.q. .' } ' ............................................................................................/ ../ | ( X.~ 5.].",
"].].].].].].].].].].].].].].].].].].].].].].].].].].].].].].].].].].].].].].].].].].].].].].].].].].].].].].].].].].].].].]."
};
