/* XPM */
static char *result[] = {
/* columns rows colors chars-per-pixel */
"62 93 203 2 ",
"   c black",
".  c #020100",
"X  c #0A0400",
"o  c #0E0600",
"O  c #160A00",
"+  c #170A00",
"@  c #170A01",
"#  c #1F0D00",
"$  c #200D00",
"%  c #200D01",
"&  c #200E00",
"*  c #200E01",
"=  c #281100",
"-  c #371702",
";  c #361800",
":  c #371800",
">  c #371900",
",  c #371801",
"<  c #371901",
"1  c #371802",
"2  c #371902",
"3  c #3F1A00",
"4  c #3E1B02",
"5  c #7D3300",
"6  c #7C3301",
"7  c #7D3301",
"8  c #7E3400",
"9  c #7E3500",
"0  c #7F3500",
"q  c #7F3501",
"w  c #7F3600",
"e  c #7F3502",
"r  c #7C3505",
"t  c #7C3604",
"y  c #7C3705",
"u  c #7C3606",
"i  c #7D3607",
"p  c #7D3707",
"a  c #7D3902",
"s  c #7D3903",
"d  c #7E3903",
"f  c #7D3904",
"g  c #7C3905",
"h  c #7C3806",
"j  c #7C3807",
"k  c #7D3807",
"l  c #7D3907",
"z  c #7E3A07",
"x  c #803500",
"c  c #803600",
"v  c #803601",
"b  c #9D3F00",
"n  c #9D3F01",
"m  c #B54D00",
"M  c #C24D00",
"N  c #C24E00",
"B  c #C34F00",
"V  c #C24E01",
"C  c #C44E00",
"Z  c #C44F00",
"A  c #C55000",
"S  c #C65000",
"D  c #C75100",
"F  c #C75200",
"G  c #DD5805",
"H  c #D95708",
"J  c #D55F0A",
"K  c #D85A0C",
"L  c #EA5900",
"P  c #EB5D00",
"I  c #ED5D00",
"U  c #EC5E00",
"Y  c #ED5E00",
"T  c #EE5E00",
"R  c #EE5F00",
"E  c #EF5F00",
"W  c #F55900",
"Q  c #F05F00",
"!  c #FA5F00",
"~  c #D86204",
"^  c #D96306",
"/  c #D4610B",
"(  c #D7620B",
")  c #D7620F",
"_  c #D9630E",
"`  c #D8630F",
"'  c #D9640C",
"]  c #D96310",
"[  c #DA6212",
"{  c #D96410",
"}  c #D96512",
"|  c #DA6612",
" . c #F06000",
".. c #F16100",
"X. c #FB6000",
"o. c #FB6001",
"O. c #FC6200",
"+. c #FD6300",
"@. c #FF6402",
"#. c #F2730F",
"$. c #F3760E",
"%. c #F8740B",
"&. c #F8750E",
"*. c #F8770E",
"=. c #F8760F",
"-. c #F16F16",
";. c #F66C14",
":. c #F56F16",
">. c #F66F19",
",. c #F77510",
"<. c #F67511",
"1. c #F77215",
"2. c #F67315",
"3. c #F77316",
"4. c #F67414",
"5. c #F67415",
"6. c #F47516",
"7. c #F67416",
"8. c #F67417",
"9. c #F97510",
"0. c #F87610",
"q. c #F97710",
"w. c #F87611",
"e. c #F97615",
"r. c #F87516",
"t. c #F37813",
"y. c #F77B13",
"u. c #F77917",
"i. c #F97812",
"p. c #F87915",
"a. c #F87817",
"s. c #F5751A",
"d. c #F3741D",
"f. c #F7751C",
"g. c #F7761C",
"h. c #F7761D",
"j. c #F6751E",
"k. c #F6761E",
"l. c #F7761E",
"z. c #F87219",
"x. c #F8761B",
"c. c #F8751E",
"v. c #F77A19",
"b. c #F4791B",
"n. c #F6781A",
"m. c #F77A1D",
"M. c #F87818",
"N. c #F97C1F",
"B. c #F27721",
"V. c #F47A20",
"C. c #F17E21",
"Z. c #F07C25",
"A. c #F97F22",
"S. c #F87F23",
"D. c #F97F24",
"F. c #F47F2D",
"G. c #EA7D34",
"H. c #F68124",
"J. c #F88120",
"K. c #EB8236",
"L. c #EB883E",
"P. c #F78C3F",
"I. c #F98C3F",
"U. c #F68840",
"Y. c #F78C40",
"T. c #F68C41",
"R. c #F78D41",
"E. c #F98F42",
"W. c #FA8D46",
"Q. c #EDAE6A",
"!. c #F4B17B",
"~. c #F7B479",
"^. c #F3B37E",
"/. c #F3B37F",
"(. c #F4B27D",
"). c #F5B27D",
"_. c #F2B281",
"`. c #F3B381",
"'. c #F0BF8B",
"]. c #F2BB8F",
"[. c #F7BA8F",
"{. c #EBBD94",
"}. c #F2BF92",
"|. c #F6BC91",
" X c #F6BD91",
".X c #F5BF93",
"XX c #F6BE93",
"oX c #F7BE93",
"OX c #F6BF93",
"+X c #F7BF93",
"@X c #F3BF94",
"#X c #F5BF94",
"$X c #F6BE94",
"%X c #F6BF94",
"&X c #F7BF94",
"*X c #F8BF94",
"=X c #EEC092",
"-X c #F2C093",
";X c #F4C091",
":X c #F7C091",
">X c #F3C094",
",X c #F5C194",
"<X c None",
/* pixels */
"<X<X<X<X<X<X<X<X<X<X<X<X<X<X<X<X<X<X<X<X<X<X<X<X<X<X<X<X<X<X<X<X<X<X<X<X<X<X<X<X<X<X<X<X<X<X<X<X<X<X<X<X<X<X<X<X<X<X<X<X<X<X",
"<X-.b.B.c.k.l.l.l.j.l.l.l.l.l.l.l.l.l.l.l.l.l.l.l.l.l.l.l.l.l.l.l.l.l.l.l.l.l.l.l.l.l.j.h.h.g.f.l.z.G.<X<X<X<X<X<X<X<X<X<X<X",
"|.! c 0 F 0 F x F F F F F F F F F F F F F F F F F F F F F F F F F F F F F F F F F F F F F x F F x D l <X<X<X<X<X<X<X<X<X<X<X",
"&X7 o o . o                                                                           .       o   X i.<X<X<X<X<X<X<X<X<X<X<X",
"XXN o . & . . . . . . . . . . . . . . . . . . . . . . . . . . . . . . . . . . . . . & . & X & X & $ w.<X<X<X<X<X<X<X<X<X<X<X",
"%XN   o &                                                                                     .   & 0.<X<X<X<X<X<X<X<X<X<X<X",
"&XB o   & . & & & & & & & & & & & & & & & & & & & & & & & & & & & & & & & & & & & & . & .   . X   & q.<X<X<X<X<X<X<X<X<X<X<X",
"%XN   . &                                                                                 &   . . w 9.<X<X<X<X<X<X<X<X<X<X<X",
"#XM   X &                                                                                 &   . & & $.<X<X<X<X<X<X<X<X<X<X<X",
"%XN   . &                                                                                 &   & X c 8.<X<X<X<X<X<X<X<X<X<X<X",
"%XN   . &                                                                                 &   . . 0 n.<X<X<X<X<X<X<X<X<X<X<X",
"%XN   . &                                                                                 &   . & X , H.F.C.J.A.S.A.D.N.K.<X",
"%XN   . &                                                                                 &   . & o X $ F 0 0 0 0 0 $ F 4 <X",
"%XN   . &                                                                                     &   & v & . &   o . o <   j <X",
"%XN   . &                                                                                 &   . & . . . & . & . . X o & p <X",
".XN o X . . & & & & & & & & & & & & & & & & & & & & & . & . . . . . &   &                                   &   . X o . k <X",
"$XM   X & o                                                           &                       &   & & & & & & o & X > & k <X",
"}.B o & & & . . . . . . . . . . . . . . . . . . . . & . . o . & o o .   .                                   &   . X o . k <X",
"<Xo.g o o X o o o o o o o o o o o o o o o o o o o o o o X + : : ; o & . &                                   &   . c . . k <X",
">XX.d + & & & & & & & & & & & & & & & & & & & & & & & v & X 1 ; + & X . .                                   &   . & o . k <X",
";XG y r t t t t t t t t t t t t t t t t t t t t t t t t 4 u i 0 o + > & .                                   &   . &   . k <X",
"<X<X<X<X<X<X<X<X<X<X<X<X<X<X<X<X<X<X<X<X<X<X<X<X<X<X<X<X<X<X<Xf ; & . . .                                   &   . &   . k <X",
"<X<X<X<X<X<X<X<X<X<X<X<X<X<X<X<X<X<X<X<X<X<X<X<X<X<X<X<X<X<X<X- + o & . .                                   &   . &   . k <X",
"<X<X<X<X<X<X<X<X<X<X<X<X<X<X<X<X<X<X<X<X<X<X<X<X<X<X<X<X<X<X<X1 & X o & o                                   &   . &   . k <X",
"<X<X<X<X<X<X<X<X<X<X<X<X<X<X<X<X<X<X<X<X<X<X<X<X<X<X<X<X<X<X<X1 X . . . .                                   &   . &   . k <X",
"<X<X<X<X<X<X<X<X<X<X<X<X<X<X<X<X<X<X<X<X<X<X<X<X<X<X<X<X<X<X<X1 X . . & . . & . . & &     &                 &   . &   . k <X",
"<X<X<X<X<X<X<X<X<X<X<X<X<X<X<X<X<X<X<X<X<X<X<X<X<X<X<X<X<X<X<X1 & X   . o             & &   &               &   . &   . k <X",
"<X<X<X<X<X<X<X<X<X<X<X<X<X<X<X<X<X<X<X<X<X<X<X<X<X<X<X<X<X<X<X1 + X . & . & & & . & &     &                 &   . &   . k <X",
"<X<X<X<X<X<X<X<X<X<X<X<X<X<X<X<X<X<X<X<X<X<X<X<X<X<X<X<X<X<X<Xy = & X + X o + o o o q . o . .               &   . &   . k <X",
"<X<X<X<X<X<X<X<X<X<X<X<X<X<X<X<X<X<X<X<X<X<X<X<X<X<X<X<X<X<X<X* o ^ o o o o o o ~ a < . c o &               &   . &   . k <X",
"<X<X<X<X<X<X<X<X<X<X<X<X<X<X<X<X<X<X<X<X<X<X<X<X<X<X<X<X<X<X<Xm P M O.U Y I Y X.V ..o > .   .               &   . &   . k <X",
"<X<X<X<X<X<X<X<X<X<X<X<X<X<X<X<X<X<X<X<X<X<X<X<X<X<X<X<X<X<X<X_.).`.!.^.(.^.(./.Q.%.o > & . .               &   . &   . k <X",
"<X<X<X<X<X<X<X<X<X<X<X<X<X<X<X<X<X<X<X<X<X<X<X<X<X<X<X<X<X<X<X<X<X<X<X<X<X<X<X<X<Xs.8 : o . .               &   . &   . k <X",
"<X<X<X<X<X<X<X<X<X<X<X<X<X<X<X<X<X<X<X<X<X<X<X<X<X<X<X<X<X<X<X<X<X<X<X<X<X<X<X<X<X1.x o &   X               &   . &   . k <X",
"<X<X<X<X<X<X<X<X<X<X<X<X<X<X<X<X<X<X<X<X<X<X<X<X<X<X<X<X<X<X<X<X<X<X<X<X<X<X<X<X<X7.0 o & . .               &   . &   . k <X",
"<X<X<X<X<X<X<X<X<X<X<X<X<X<X<X<X<X<X<X<X<X<X<X<X<X<X<X<X<X<X<X<X<X<X<X<X<X<X<X<X<X3.F o X   .               &   . &   . k <X",
"<X<X<X<X<X<X<X<X<X<X<X<X<X<X<X<X<X<X<X<X<X<X<X<X<X<X<X<X<X<X<X<X<X<X<X<X<X<X<X<X<X5.0 o &   &               &   . &   . k <X",
"<X<X<X<X<X<X<X<X<X<X<X<X<X<X<X<X<X<X<X<X<X<X<X<X<X<X<X<X<X<X<X<X<X<X<X<X<X<X<X<X<X3.F o & & .               &   . &   . k <X",
"<X<X<X<X<X<X<X<X<X<X<X<X<X<X<X<X<X<X<X<X<X<X<X<X<X<X<X<X<X<X<X<X<X<X<X<X<X<X<X<X<X[ $ o o . .               &   . &   . k <X",
"<X<X<X<X<X<X<X<X<X<X<X<X<X<X<X<X<X<X<X<X<X<X<X<X<X<X<X<X<X<X<X<X<X<X<X<X<X<X<X<X<X<.> % &   &               &   . &   . k <X",
"<X<X<X<X<X<X<X<X<X<X<X<X<X<X<X<X<X<X<X<X<X<X<X<X<X<X<X<X<X<X<X<X<X<X<X<X<X<X<X<X<Xd.0 o < & o               &   . &   . k <X",
"<X[.,X:X&X+X*X*X*X*X*X*X*X*X*X*X*X*X*X*X*X*X*X*X*X*X*X*X*X*X*X*X*X*X&X*X+XoX X<X~.#.+ & X . .               &   . &   . k <X",
"{.W 5 5 +.C E E E E E E E E E E E E E E E E E E E E E E E E E E E E R T R Y Y Y 3 A > e o & .               &   . &   . k <X",
"<X7 o o   o                                                                   o > . X . o &                 &   . &   . k <X",
"XXM   . & o                                                           .       & &       &   &               &   . &   . k <X",
"#XN o X &                                                           &   & . &     . . .   &                 &   . &   . k <X",
"%XN   . &                                                                                                   &   . &   . k <X",
"%XN   . &                                                                                                   &   . &   . k <X",
"%XN   . &                                                                                                   &   . &   . k <X",
"%XN   . &                                                                                                   &   . &   . k <X",
"%XN   . &                                                                                                   &   . &   . k <X",
"%XN   . &                                                                                                   &   . &   . k <X",
"%XN   . &                                                                                                   &   . &   . k <X",
"%XN   . &                                                                                                   &   . &   . k <X",
"%XN   . &                                                                                                   &   . &   . k <X",
"%XN   . &                                                                                                   &   . &   . k <X",
"#XN o . & . & & & & & & & & & & & & & & & & & & & & & & & & & & & & & & & . & . .   . & .   &               &   . &   . k <X",
"XXM   X .                                                                         &       .                 &   . &   . k <X",
"@XN < X & . & & & & & & & & & & & & & & & & & & & & & & & & & & & & & & & . & . . X . & &   &               &   . &   . k <X",
"-X@.2 o o   o o o o o o o o o o o o o o o o o o o o o o o o o o o o o o o o o o o , X + + . .               &   . &   . k <X",
"].L q E A A S S S S S S S S S S S S S S S S S S S S S S S S S S S S S S S A A  .= + + + . . .               &   . &   . k <X",
"<XL.E.I.T.Y.R.R.R.R.R.R.R.R.R.R.R.R.R.R.R.R.R.R.R.R.R.R.R.R.R.R.R.R.R.R.R.Y.P.W.U.o > o $   &               &   . &   . k <X",
"<X<X<X<X<X<X<X<X<X<X<X<X<X<X<X<X<X<X<X<X<X<X<X<X<X<X<X<X<X<X<X<X<X<X<X<X<X<X<X<X<Xr.Q 1 o &                 &   . &   . k <X",
"<X<X<X<X<X<X<X<X<X<X<X<X<X<X<X<X<X<X<X<X<X<X<X<X<X<X<X<X<X<X<X<X<X<X<X<X<X<X<X<X<X6.+ 1 X . .               &   . &   . k <X",
"<X<X<X<X<X<X<X<X<X<X<X<X<X<X<X<X<X<X<X<X<X<X<X<X<X<X<X<X<X<X<X<X<X<X<X<X<X<X<X<X<X4.0 o &   &               &   . &   . k <X",
"<X<X<X<X<X<X<X<X<X<X<X<X<X<X<X<X<X<X<X<X<X<X<X<X<X<X<X<X<X<X<X<X<X<X<X<X<X<X<X<X<X} F o X & .               &   . &   . k <X",
"<X<X<X<X<X<X<X<X<X<X<X<X<X<X<X<X<X<X<X<X<X<X<X<X<X<X<X<X<X<X<X<X<X<X<X<X<X<X<X<X<X5.0 o &   .               &   . &   . k <X",
"<X<X<X<X<X<X<X<X<X<X<X<X<X<X<X<X<X<X<X<X<X<X<X<X<X<X<X<X<X<X<X<X<X<X<X<X<X<X<X<X<X} x o X & .               &   . &   . k <X",
"<X<X<X<X<X<X<X<X<X<X<X<X<X<X<X<X<X<X<X<X<X<X<X<X<X<X<X<X<X<X<X<X<X<X<X<X<X<X<X<X<X2.0 o &   &               &   . &   . k <X",
"<X<X<X<X<X<X<X<X<X<X<X<X<X<X<X<X<X<X<X<X<X<X<X<X<X<X<X<X<X<X<X<X<X<X<X<X<X<X<X<X<X| + 1 X . .               &   . &   . k <X",
"<X<X<X<X<X<X<X<X<X<X<X<X<X<X<X<X<X<X<X<X<X<X<X<X<X<X<X<X<X<X<X<X<X<X<X<X<X<X<X<X<X:.& s > & .               &   . &   . k <X",
"<X<X<X<X<X<X<X<X<X<X<X<X<X<X<X<X<X<X<X<X<X<X<X<X<X<X<X<X<X<X<X<X<X<X<X<X<X<X<X<X<Xt.X + . . .               &   . &   . k <X",
"=XH ;.h j h j j j j j j j j j j j j j j j j j j j j j j j j j j j j j j j j j _ J $ . o X & .               &   . &   . k <X",
"'.B 1 X & & & & & & & & & & & & & & & & & & & & & & & & & & & & & & & & & & & $ q @ o + . & .               &   . &   . k <X",
"OXn o .                                                                       o o o o o   &                 &   . &   . k <X",
"#XN   X & o                                                       .           & & & & & &   &               &   . &   . k <X",
".Xb   . . .                                                                 &             &                 &   . &   . k <X",
"%XN   . &                                                                                     & . . .   . . . . . & . & h <X",
"%XN   . &                                                                                             &     &   X c o . p <X",
"%XN   . &                                                                                     & . . O > X & o . . & o & ( <X",
"%XN   . &                                                                                     . . & X $ + + + + + # + 0 / <X",
"%XN   . &                                                                                     . & . o x.p.y.m.M.u.a.v.e.V.<X",
"%XN   . &                                                                                 &   & . c ' <X<X<X<X<X<X<X<X<X<X<X",
"%XN   . &                                                                                     .   X 0.<X<X<X<X<X<X<X<X<X<X<X",
"%XN   . &                                                                                 &   X & + &.<X<X<X<X<X<X<X<X<X<X<X",
"%XN   . &                                                                                 &   & & w ,.<X<X<X<X<X<X<X<X<X<X<X",
"%XN   . &                                                                                 &   . & & =.<X<X<X<X<X<X<X<X<X<X<X",
".XN   . .                                                                                 &   . & & =.<X<X<X<X<X<X<X<X<X<X<X",
"#XN   X & . . . . . . . . . . . . . . . . . . . . . . . . . . . . . . . . . . . . . . . . & . . & & ,.<X<X<X<X<X<X<X<X<X<X<X",
"OX6 o o   o                                                                                   .   X *.<X<X<X<X<X<X<X<X<X<X<X",
"'.Z 1 X $ & & & & & & & & & & & & & & & & & & & & & & & & & & & & & & & & & & & & & & $ & & & $ & 9 z <X<X<X<X<X<X<X<X<X<X<X",
"<XK >.` ] ` { { { { { { { { { { { { { { { { { { { { { { { { { { { { { { { { { { { { { ] { { { { { ) Z.<X<X<X<X<X<X<X<X<X<X<X",
"<X<X<X<X<X<X<X<X<X<X<X<X<X<X<X<X<X<X<X<X<X<X<X<X<X<X<X<X<X<X<X<X<X<X<X<X<X<X<X<X<X<X<X<X<X<X<X<X<X<X<X<X<X<X<X<X<X<X<X<X<X<X"
};
