/* XPM */
static char *result[] = {
/* columns rows colors chars-per-pixel */
"62 93 172 2 ",
"   c black",
".  c #020100",
"X  c #0A0400",
"o  c #0E0600",
"O  c #170A00",
"+  c #1F0D00",
"@  c #200D00",
"#  c #200E00",
"$  c #200E01",
"%  c #281100",
"&  c #371800",
"*  c #371900",
"=  c #361801",
"-  c #371802",
";  c #371902",
":  c #381901",
">  c #3E1B00",
",  c #5A2600",
"<  c #5A2700",
"1  c #7E3500",
"2  c #7F3500",
"3  c #7E3401",
"4  c #7F3600",
"5  c #7E3402",
"6  c #7C3706",
"7  c #7C3800",
"8  c #7E3A01",
"9  c #7C3802",
"0  c #7C3803",
"q  c #7D3903",
"w  c #7B3804",
"e  c #7B3806",
"r  c #7C3804",
"t  c #7C3805",
"y  c #7D3A04",
"u  c #7C3806",
"i  c #7D3806",
"p  c #7D3807",
"a  c #7D3907",
"s  c #7C3908",
"d  c #803500",
"f  c #803600",
"g  c #9D3F00",
"h  c #9B4000",
"j  c #B74A00",
"k  c #B74B00",
"l  c #B54C00",
"z  c #C24D00",
"x  c #C24E00",
"c  c #C34E00",
"v  c #C34F00",
"b  c #C54F00",
"n  c #C44E01",
"m  c #C55100",
"M  c #C55001",
"N  c #C65100",
"B  c #C75100",
"V  c #C65001",
"C  c #C75200",
"Z  c #EB5D00",
"A  c #EC5C00",
"S  c #EC5D00",
"D  c #ED5D00",
"F  c #ED5E00",
"G  c #EE5E00",
"H  c #EE5F00",
"J  c #EF5F00",
"K  c #F95700",
"L  c #F05B00",
"P  c #F05F00",
"I  c #F15F00",
"U  c #FC5E00",
"Y  c #D86204",
"T  c #D86307",
"R  c #D96405",
"E  c #D76308",
"W  c #D86308",
"Q  c #D96308",
"!  c #D96309",
"~  c #D9630B",
"^  c #DA6409",
"/  c #DA640A",
"(  c #DA650A",
")  c #DA640B",
"_  c #D9630F",
"`  c #DA640F",
"'  c #D86210",
"]  c #D86310",
"[  c #D96410",
"{  c #D96411",
"}  c #DA6510",
"|  c #F06000",
" . c #F16000",
".. c #FB6100",
"X. c #FC6100",
"o. c #FF6000",
"O. c #FC6200",
"+. c #FE6300",
"@. c #FE6400",
"#. c #FF6400",
"$. c #F47111",
"%. c #F37119",
"&. c #F77219",
"*. c #F2711C",
"=. c #F5741C",
"-. c #F7741D",
";. c #F6751E",
":. c #F7751E",
">. c #F6761E",
",. c #F7761E",
"<. c #F7771E",
"1. c #F7761F",
"2. c #F3781D",
"3. c #F0791F",
"4. c #EF7920",
"5. c #F07523",
"6. c #F57720",
"7. c #F77722",
"8. c #F37929",
"9. c #F27B2C",
"0. c #FB7F28",
"q. c #F98E45",
"w. c #F98C47",
"e. c #EE974C",
"r. c #EC984C",
"t. c #F59345",
"y. c #F49444",
"u. c #F79149",
"i. c #F6924A",
"p. c #F7924A",
"a. c #F7934B",
"s. c #F8924A",
"d. c #F39A4F",
"f. c #F89351",
"g. c #F39950",
"h. c #F39951",
"j. c #F39A51",
"k. c #F49A51",
"l. c #F49E52",
"z. c #F29D55",
"x. c #F6985A",
"c. c #FAA061",
"v. c #F9A966",
"b. c #F4A66B",
"n. c #F7A76A",
"m. c #F5A66D",
"M. c #F5A76D",
"N. c #F6A76D",
"B. c #F5A76E",
"V. c #F1A96A",
"C. c #FAA968",
"Z. c #F2B37C",
"A. c #F1B37F",
"S. c #F2B37E",
"D. c #F2B47D",
"F. c #F1B47F",
"G. c #F2B47E",
"H. c #F3B47E",
"J. c #F8B67F",
"K. c #F5B380",
"L. c #F4B583",
"P. c #F2B587",
"I. c #F6B887",
"U. c #F3BC86",
"Y. c #F8BA85",
"T. c #F4BB88",
"R. c #F5BB89",
"E. c #F5BB8A",
"W. c #F6BA8A",
"Q. c #F6BB8A",
"!. c #F7BC94",
"~. c None",
/* pixels */
"~.~.~.~.~.~.~.~.~.~.~.~.~.~.~.~.~.~.~.~.~.~.~.~.~.~.~.~.~.~.~.~.~.~.~.~.~.~.~.~.~.~.~.~.~.~.~.~.~.~.~.~.~.~.~.~.~.~.~.~.~.~.",
"!.%.3.=.;.;.,.,.,.,.,.,.,.,.,.,.;.:.6.*.x.~.~.~.~.~.~.~.~.~.~.~.~.~.~.~.~.~.~.~.~.9.&.7.2.;.>.,.,.,.,.,.,.;.;.,.<.,.1.-.8.~.",
"I.U f C 2 C C C C C C C C C C C C B 2 o.q.~.~.~.~.~.~.~.~.~.~.~.~.~.~.~.~.~.~.~.~.0 4 d d N C C C C C C C B C C d d 4 C - ~.",
"E.n 8   .                         . o V a.~.~.~.~.~.~.~.~.~.~.~.~.~.~.~.~.~.~.~.~.( o o   .               #     . . o . a ~.",
"W.D * # X # . . . . . . . . . . . # o | u.~.~.~.~.~.~.~.~.~.~.~.~.~.~.~.~.~.~.~.~.! o # X X # . . . . . . # # # X # . # u ~.",
"R.A o .                         # . o I i.~.~.~.~.~.~.~.~.~.~.~.~.~.~.~.~.~.~.~.~.^ X X .   .             . . . X X   f ; ~.",
"T.D o . # X # # # # # # # # # # # X   #.i.~.~.~.~.~.~.~.~.~.~.~.~.~.~.~.~.~.~.~.~./ o .   #   # # # # # #   .     .   # ; ~.",
"R.D o .   .                     # . o I p.~.~.~.~.~.~.~.~.~.~.~.~.~.~.~.~.~.~.~.~.Q X # # . #             .   . . # . # i ~.",
"Q.D o # o                         # o  .s.~.~.~.~.~.~.~.~.~.~.~.~.~.~.~.~.~.~.~.~.w O # #   #               .   #   # f p ~.",
"R.D o .   .                     # . o I p.~.~.~.~.~.~.~.~.~.~.~.~.~.~.~.~.~.~.~.~.Q X # # . #                   # # . # i ~.",
"Q.D o #                           # o  .s.~.~.~.~.~.~.~.~.~.~.~.~.~.~.~.~.~.~.~.~.Q X # #   #                   #   . # p ~.",
"Q.D o #                           # o  .s.~.~.~.~.~.~.~.~.~.~.~.~.~.~.~.~.~.~.~.~.Q X # #   #                   #   . # p ~.",
"Q.D o #                           # o  .s.~.~.~.~.~.~.~.~.~.~.~.~.~.~.~.~.~.~.~.~.Q X # #   #                   #   . # p ~.",
"Q.D o #                           # o  .s.~.~.~.~.~.~.~.~.~.~.~.~.~.~.~.~.~.~.~.~.Q X # #   #                   #   . # p ~.",
"Q.D o #                           # o  .s.~.~.~.~.~.~.~.~.~.~.~.~.~.~.~.~.~.~.~.~.Q X # #   #                   #   . # p ~.",
"Q.D o #                           # o  .s.~.~.~.~.~.~.~.~.~.~.~.~.~.~.~.~.~.~.~.~.Q X # #   #                   #   . # p ~.",
"Q.D o #                           # o  .s.~.~.~.~.~.~.~.~.~.~.~.~.~.~.~.~.~.~.~.~.Q X # #   #                   #   . # p ~.",
"Q.D o #                           # o  .s.~.~.~.~.~.~.~.~.~.~.~.~.~.~.~.~.~.~.~.~.Q X # #   #                   #   . # p ~.",
"Q.D o #                           # o  .s.~.~.~.~.~.~.~.~.~.~.~.~.~.~.~.~.~.~.~.~.Q X # #   #                   #   . # p ~.",
"Q.D o #                           # o  .s.~.~.~.~.~.~.~.~.~.~.~.~.~.~.~.~.~.~.~.~.Q X # #   #                   #   . # p ~.",
"Q.D o #                           # o  .s.~.~.~.~.~.~.~.~.~.~.~.~.~.~.~.~.~.~.~.~.Q X # #   #                   #   . # p ~.",
"Q.D o #                           # o  .s.~.~.~.~.~.~.~.~.~.~.~.~.~.~.~.~.~.~.~.~.Q X # #   #                   #   . # p ~.",
"Q.D o #                           # o  .s.~.~.~.~.~.~.~.~.~.~.~.~.~.~.~.~.~.~.~.~.Q X # #   #                   #   . # p ~.",
"Q.D o #                           # o  .s.~.~.~.~.~.~.~.~.~.~.~.~.~.~.~.~.~.~.~.~.Q X # #   #                   #   . # p ~.",
"Q.D o #                           # o  .s.~.~.~.~.~.~.~.~.~.~.~.~.~.~.~.~.~.~.~.~.Q X # #   #                   #   . # p ~.",
"Q.D o #                         . # o P s.~.~.~.~.~.~.~.~.~.~.~.~.~.~.~.~.~.~.~.~.t O # # . #                   #   . # p ~.",
"Q.D o #                           # o  .u.~.~.~.~.~.~.~.~.~.~.~.~.~.~.~.~.~.~.~.~.T X X #   .                   #   . # p ~.",
"Q.D o #                         . #   @.s.~.~.~.~.~.~.~.~.~.~.~.~.~.~.~.~.~.~.~.~.t + 4 # . #                   #   . # p ~.",
"Q.D o #                         . # o M t.~.~.~.~.~.~.~.~.~.~.~.~.~.~.~.~.~.~.~.~.6 R X & # .                   #   . # p ~.",
"Q.D o #                         . # o +.w.~.~.~.~.~.~.~.~.~.~.~.~.~.~.~.~.~.~.~.~.o o O o . .                   #   . # p ~.",
"Q.D o #                         . # o , f.~.~.~.~.~.~.~.~.~.~.~.~.~.~.~.~.~.~.~.~.) O O   . .                   #   . # p ~.",
"Q.D o #                         # # o 1 0.J.K.F.A.D.G.H.H.H.H.H.H.H.H.H.H.S.Z.L.V.e o # O . .                   #   . # p ~.",
"Q.D o #                         . # . X % k j v O.G O.G G G G G G G G G G O.G X.h O o # o # .                   #   . # p ~.",
"Q.D o #                         .   .   o o o :                                   . . # # . #                   #   . # p ~.",
"Q.D o #                           #   # # . # # # # # # # # # # # # # # # # # # # #                             #   . # p ~.",
"Q.D o #                         .   .           . # . # # # # # # # # # # # . #   . . #   . #                   #   . # p ~.",
"R.S * . . . # . #         .   # .                                                                               #   . # p ~.",
"W...o # o         . # # .                   #   # # # # # # # # # # # # # # # #   #                             #   . # p ~.",
"Y.z q # . X X . # O o . O .   . .                                                                               #   . # p ~.",
"U.5 y : o o o o o o * o o O . # .                                                                               #   . # p ~.",
"P.K b z F F F F c k < $ # 9   #                                                                                 #   . # p ~.",
"~.c.v.n.M.N.m.B.b.C.y., o = . # .                                                                               #   . # p ~.",
"~.~.~.~.~.~.~.~.~.~.~.l ; # . . #                                                                               #   . # p ~.",
"~.~.~.~.~.~.~.~.~.~.~.x o X   #                                                                                 #   . # p ~.",
"~.~.~.~.~.~.~.~.~.~.~.z # O . # .                                                                               #   . # p ~.",
"~.~.~.~.~.~.~.~.~.~.~.x o o   .                                                                                 #   . # p ~.",
"~.~.~.~.~.~.~.~.~.~.~.z . o . . .                                           .   . . . .   #                     #   . # p ~.",
"~.~.~.~.~.~.~.~.~.~.~.g o O   #   # # # # # # # # # # # # # # # # # # # # #   #         #   #                   #   . # p ~.",
"~.~.~.~.~.~.~.~.~.~.~.Z o X o o X o o o o o o o o o o o o o o o o o o o o o o o # . f .   #                     #   . # p ~.",
"~.~.~.~.~.~.~.~.~.~.~.3 o o o o o o o o o o o o o o o o o o o o o o o o o o o o - o . o > . .                   #   . # p ~.",
"~.~.~.~.~.~.~.~.~.~.~.L P J H H H H H H H H H H H H H H H H H H H H H H H H H F g . Y X # . .                   #   . # p ~.",
"~.~.~.~.~.~.~.~.~.~.~.r.l.d.h.j.h.k.k.k.k.k.k.k.k.k.k.k.k.k.k.k.k.k.k.k.k.j.g.z.e.$ - X . . .                   #   . # p ~.",
"~.~.~.~.~.~.~.~.~.~.~.~.~.~.~.~.~.~.~.~.~.~.~.~.~.~.~.~.~.~.~.~.~.~.~.~.~.~.~.~.~.} % o 7 . .                   #   . # p ~.",
"~.~.~.~.~.~.~.~.~.~.~.~.~.~.~.~.~.~.~.~.~.~.~.~.~.~.~.~.~.~.~.~.~.~.~.~.~.~.~.~.~.E & X # . .                   #   . # p ~.",
"~.~.~.~.~.~.~.~.~.~.~.~.~.~.~.~.~.~.~.~.~.~.~.~.~.~.~.~.~.~.~.~.~.~.~.~.~.~.~.~.~.r # # # o #                   #   . # p ~.",
"~.~.~.~.~.~.~.~.~.~.~.~.~.~.~.~.~.~.~.~.~.~.~.~.~.~.~.~.~.~.~.~.~.~.~.~.~.~.~.~.~.W X # # . .                   #   . # p ~.",
"~.~.~.~.~.~.~.~.~.~.~.~.~.~.~.~.~.~.~.~.~.~.~.~.~.~.~.~.~.~.~.~.~.~.~.~.~.~.~.~.~.Q X # #   #                   #   . # p ~.",
"~.~.~.~.~.~.~.~.~.~.~.~.~.~.~.~.~.~.~.~.~.~.~.~.~.~.~.~.~.~.~.~.~.~.~.~.~.~.~.~.~.Q X # #   #                   #   . # p ~.",
"~.~.~.~.~.~.~.~.~.~.~.~.~.~.~.~.~.~.~.~.~.~.~.~.~.~.~.~.~.~.~.~.~.~.~.~.~.~.~.~.~.Q X # #   #                   #   . # p ~.",
"~.~.~.~.~.~.~.~.~.~.~.~.~.~.~.~.~.~.~.~.~.~.~.~.~.~.~.~.~.~.~.~.~.~.~.~.~.~.~.~.~.Q X # #   #                   #   . # p ~.",
"~.~.~.~.~.~.~.~.~.~.~.~.~.~.~.~.~.~.~.~.~.~.~.~.~.~.~.~.~.~.~.~.~.~.~.~.~.~.~.~.~.Q X # #   #                   #   . # p ~.",
"~.~.~.~.~.~.~.~.~.~.~.~.~.~.~.~.~.~.~.~.~.~.~.~.~.~.~.~.~.~.~.~.~.~.~.~.~.~.~.~.~.Q X # #   #                   #   . # p ~.",
"~.~.~.~.~.~.~.~.~.~.~.~.~.~.~.~.~.~.~.~.~.~.~.~.~.~.~.~.~.~.~.~.~.~.~.~.~.~.~.~.~.Q X # #   #                   #   . # p ~.",
"~.~.~.~.~.~.~.~.~.~.~.~.~.~.~.~.~.~.~.~.~.~.~.~.~.~.~.~.~.~.~.~.~.~.~.~.~.~.~.~.~.Q X # #   #                   #   . # p ~.",
"~.~.~.~.~.~.~.~.~.~.~.~.~.~.~.~.~.~.~.~.~.~.~.~.~.~.~.~.~.~.~.~.~.~.~.~.~.~.~.~.~.Q X # #   #                   #   . # p ~.",
"~.~.~.~.~.~.~.~.~.~.~.~.~.~.~.~.~.~.~.~.~.~.~.~.~.~.~.~.~.~.~.~.~.~.~.~.~.~.~.~.~.Q X # #   #                   #   . # p ~.",
"~.~.~.~.~.~.~.~.~.~.~.~.~.~.~.~.~.~.~.~.~.~.~.~.~.~.~.~.~.~.~.~.~.~.~.~.~.~.~.~.~.Q X # #   #                   #   . # p ~.",
"~.~.~.~.~.~.~.~.~.~.~.~.~.~.~.~.~.~.~.~.~.~.~.~.~.~.~.~.~.~.~.~.~.~.~.~.~.~.~.~.~.Q X # #   #                   #   . # p ~.",
"~.~.~.~.~.~.~.~.~.~.~.~.~.~.~.~.~.~.~.~.~.~.~.~.~.~.~.~.~.~.~.~.~.~.~.~.~.~.~.~.~.Q X # #   #                   #   . # p ~.",
"~.~.~.~.~.~.~.~.~.~.~.~.~.~.~.~.~.~.~.~.~.~.~.~.~.~.~.~.~.~.~.~.~.~.~.~.~.~.~.~.~.Q X # #   #                   #   . # p ~.",
"~.~.~.~.~.~.~.~.~.~.~.~.~.~.~.~.~.~.~.~.~.~.~.~.~.~.~.~.~.~.~.~.~.~.~.~.~.~.~.~.~.Q X # #   #                   #   . # p ~.",
"~.~.~.~.~.~.~.~.~.~.~.~.~.~.~.~.~.~.~.~.~.~.~.~.~.~.~.~.~.~.~.~.~.~.~.~.~.~.~.~.~.Q X # #   #                   #   . # p ~.",
"~.~.~.~.~.~.~.~.~.~.~.~.~.~.~.~.~.~.~.~.~.~.~.~.~.~.~.~.~.~.~.~.~.~.~.~.~.~.~.~.~.Q X # #   #                   #   . # p ~.",
"~.~.~.~.~.~.~.~.~.~.~.~.~.~.~.~.~.~.~.~.~.~.~.~.~.~.~.~.~.~.~.~.~.~.~.~.~.~.~.~.~.Q X # #   #                   #   . # p ~.",
"~.~.~.~.~.~.~.~.~.~.~.~.~.~.~.~.~.~.~.~.~.~.~.~.~.~.~.~.~.~.~.~.~.~.~.~.~.~.~.~.~.Q X # #   #                   #   . # p ~.",
"~.~.~.~.~.~.~.~.~.~.~.~.~.~.~.~.~.~.~.~.~.~.~.~.~.~.~.~.~.~.~.~.~.~.~.~.~.~.~.~.~.Q X # #   #                   #   . # p ~.",
"~.~.~.~.~.~.~.~.~.~.~.~.~.~.~.~.~.~.~.~.~.~.~.~.~.~.~.~.~.~.~.~.~.~.~.~.~.~.~.~.~.Q X # #   #                   #   . # p ~.",
"~.~.~.~.~.~.~.~.~.~.~.~.~.~.~.~.~.~.~.~.~.~.~.~.~.~.~.~.~.~.~.~.~.~.~.~.~.~.~.~.~.Q X # #   #                   #   . # p ~.",
"~.~.~.~.~.~.~.~.~.~.~.~.~.~.~.~.~.~.~.~.~.~.~.~.~.~.~.~.~.~.~.~.~.~.~.~.~.~.~.~.~.Q X # #   #                   #   . # p ~.",
"~.~.~.~.~.~.~.~.~.~.~.~.~.~.~.~.~.~.~.~.~.~.~.~.~.~.~.~.~.~.~.~.~.~.~.~.~.~.~.~.~.Q X # #   #                   #   . # p ~.",
"~.~.~.~.~.~.~.~.~.~.~.~.~.~.~.~.~.~.~.~.~.~.~.~.~.~.~.~.~.~.~.~.~.~.~.~.~.~.~.~.~.Q X # #   #                   #   . # p ~.",
"~.~.~.~.~.~.~.~.~.~.~.~.~.~.~.~.~.~.~.~.~.~.~.~.~.~.~.~.~.~.~.~.~.~.~.~.~.~.~.~.~.Q X # #   #                   #   . # p ~.",
"~.~.~.~.~.~.~.~.~.~.~.~.~.~.~.~.~.~.~.~.~.~.~.~.~.~.~.~.~.~.~.~.~.~.~.~.~.~.~.~.~.Q X # #   #                   #   . # p ~.",
"~.~.~.~.~.~.~.~.~.~.~.~.~.~.~.~.~.~.~.~.~.~.~.~.~.~.~.~.~.~.~.~.~.~.~.~.~.~.~.~.~.Q X # #   #                   #   . # p ~.",
"~.~.~.~.~.~.~.~.~.~.~.~.~.~.~.~.~.~.~.~.~.~.~.~.~.~.~.~.~.~.~.~.~.~.~.~.~.~.~.~.~.Q X # #   #                   #   . # p ~.",
"~.~.~.~.~.~.~.~.~.~.~.~.~.~.~.~.~.~.~.~.~.~.~.~.~.~.~.~.~.~.~.~.~.~.~.~.~.~.~.~.~.Q X # #   #                   #   . # p ~.",
"~.~.~.~.~.~.~.~.~.~.~.~.~.~.~.~.~.~.~.~.~.~.~.~.~.~.~.~.~.~.~.~.~.~.~.~.~.~.~.~.~.Q X # #   #                   #   . # p ~.",
"~.~.~.~.~.~.~.~.~.~.~.~.~.~.~.~.~.~.~.~.~.~.~.~.~.~.~.~.~.~.~.~.~.~.~.~.~.~.~.~.~.t X # #   .                   # # . # u ~.",
"~.~.~.~.~.~.~.~.~.~.~.~.~.~.~.~.~.~.~.~.~.~.~.~.~.~.~.~.~.~.~.~.~.~.~.~.~.~.~.~.~.W O # # . # . . . . . . . . . #   X # p ~.",
"~.~.~.~.~.~.~.~.~.~.~.~.~.~.~.~.~.~.~.~.~.~.~.~.~.~.~.~.~.~.~.~.~.~.~.~.~.~.~.~.~.t . o . o .                       o . ~ ~.",
"~.~.~.~.~.~.~.~.~.~.~.~.~.~.~.~.~.~.~.~.~.~.~.~.~.~.~.~.~.~.~.~.~.~.~.~.~.~.~.~.~.o m # O @ # # # # # # # # # # @ @ X 4 ; ~.",
"~.~.~.~.~.~.~.~.~.~.~.~.~.~.~.~.~.~.~.~.~.~.~.~.~.~.~.~.~.~.~.~.~.~.~.~.~.~.~.~.~.4.' ` $.] _ [ [ [ [ [ [ [ _ [ _ ] { s 5.~.",
"~.~.~.~.~.~.~.~.~.~.~.~.~.~.~.~.~.~.~.~.~.~.~.~.~.~.~.~.~.~.~.~.~.~.~.~.~.~.~.~.~.~.~.~.~.~.~.~.~.~.~.~.~.~.~.~.~.~.~.~.~.~."
};
