/* XPM */
static char *result[] = {
/* columns rows colors chars-per-pixel */
"62 92 212 2 ",
"   c black",
".  c #020100",
"X  c #0A0400",
"o  c #0E0600",
"O  c #170A00",
"+  c #200D00",
"@  c #200E00",
"#  c #200E01",
"$  c #281100",
"%  c #371800",
"&  c #371900",
"*  c #371801",
"=  c #371901",
"-  c #361802",
";  c #371802",
":  c #371803",
">  c #381901",
",  c #3E1B00",
"<  c #3E1B01",
"1  c #5A2600",
"2  c #5A2601",
"3  c #7B3300",
"4  c #7D3300",
"5  c #7D3301",
"6  c #7D3400",
"7  c #7D3401",
"8  c #7E3400",
"9  c #7F3500",
"0  c #7F3600",
"q  c #7F3601",
"w  c #7C3403",
"e  c #7A3604",
"r  c #7B3704",
"t  c #7B3605",
"y  c #7B3707",
"u  c #7C3605",
"i  c #7C3705",
"p  c #7C3706",
"a  c #7C3901",
"s  c #7D3901",
"d  c #7E3901",
"f  c #7C3902",
"g  c #7E3903",
"h  c #7E3A02",
"j  c #7C3805",
"k  c #803500",
"l  c #803600",
"z  c #803601",
"x  c #9B4000",
"c  c #9C4000",
"v  c #C24D00",
"b  c #C34E00",
"n  c #C34F00",
"m  c #C24E01",
"M  c #C34F02",
"N  c #C44E00",
"B  c #C44F00",
"V  c #C54F00",
"C  c #C54F02",
"Z  c #C55000",
"A  c #C55100",
"S  c #C65100",
"D  c #C75200",
"F  c #EB5D00",
"G  c #EC5C00",
"H  c #EC5D00",
"J  c #ED5D00",
"K  c #EC5E00",
"L  c #EE5F00",
"P  c #EF5F00",
"I  c #ED5F02",
"U  c #F65700",
"Y  c #F25A00",
"T  c #F55C00",
"R  c #F85C00",
"E  c #F85D00",
"W  c #F95F00",
"Q  c #DA6401",
"!  c #D86403",
"~  c #DB6506",
"^  c #D56009",
"/  c #D7610B",
"(  c #D6620C",
")  c #D8640A",
"_  c #FB6100",
"`  c #FC6100",
"'  c #FD6100",
"]  c #FE6000",
"[  c #FC6200",
"{  c #FD6200",
"}  c #FD6300",
"|  c #FE6300",
" . c #FE6400",
".. c #F37213",
"X. c #F87517",
"o. c #FB7813",
"O. c #F0711A",
"+. c #F6741B",
"@. c #F7761A",
"#. c #F7771A",
"$. c #F6761B",
"%. c #F7761B",
"&. c #F6771B",
"*. c #F7771B",
"=. c #F1771C",
"-. c #F5761C",
";. c #F5761D",
":. c #F6771C",
">. c #F6771D",
",. c #F97519",
"<. c #F8761A",
"1. c #F2781F",
"2. c #FA7C1F",
"3. c #E9782E",
"4. c #F27920",
"5. c #F17A20",
"6. c #F77B20",
"7. c #F77B26",
"8. c #F77D24",
"9. c #F67C25",
"0. c #F67C26",
"q. c #F68025",
"w. c #F7812A",
"e. c #FA8731",
"r. c #F98933",
"t. c #F98A32",
"y. c #F98A33",
"u. c #F98934",
"i. c #F88A34",
"p. c #F98A34",
"a. c #F98A36",
"s. c #F88D37",
"d. c #F49144",
"f. c #F5984F",
"g. c #F49B51",
"h. c #F79F57",
"j. c #F29D59",
"k. c #F29F59",
"l. c #F29F5A",
"z. c #F39F5A",
"x. c #F29E5B",
"c. c #F39E5B",
"v. c #F39F5B",
"b. c #F49E58",
"n. c #F19F5C",
"m. c #EFA45E",
"M. c #F3A059",
"N. c #F2A05A",
"B. c #F3A05A",
"V. c #F4A15B",
"C. c #F3A05D",
"Z. c #EFA463",
"A. c #EDA369",
"S. c #F1A260",
"D. c #F0A360",
"F. c #EEAC73",
"G. c #F7AE72",
"H. c #F1AB74",
"J. c #F5AC74",
"K. c #F5AC76",
"L. c #F1AF78",
"P. c #F3AF7B",
"I. c #F5AF7A",
"U. c #F5AF7B",
"Y. c #F6AF7A",
"T. c #F3AD7C",
"R. c #F6AD7C",
"E. c #F4AF7D",
"W. c #EFB27E",
"Q. c #F2B072",
"!. c #F2B173",
"~. c #F2B174",
"^. c #F2B274",
"/. c #F2B178",
"(. c #F2B17A",
"). c #F5B07A",
"_. c #F5B07B",
"`. c #F6B07A",
"'. c #F7B17A",
"]. c #F6B07B",
"[. c #F7B07B",
"{. c #F6B478",
"}. c #F5B17C",
"|. c #F6B07C",
" X c #F3B682",
".X c #F4B480",
"XX c #F4B585",
"oX c #F1B885",
"OX c #F5B985",
"+X c #F7B986",
"@X c #F3BC85",
"#X c #F1BA8B",
"$X c #F6BA88",
"%X c #F7BA88",
"&X c #F6BA89",
"*X c #F7BA89",
"=X c #F6BB89",
"-X c #F5BA8A",
";X c #F5BB8A",
":X c #F7BC8A",
">X c #F1BB8D",
",X c #F3BA8E",
"<X c #F4BA8C",
"1X c #F4BD8E",
"2X c #F5BD8E",
"3X c #F4BD8F",
"4X c #F3BE91",
"5X c #F3BF94",
"6X c #F9BB90",
"7X c #F2C090",
"8X c #FBC092",
"9X c None",
/* pixels */
"9Xd.e.a.p.u.t.y.p.y.p.p.p.p.p.p.p.p.p.p.p.p.p.p.p.p.p.p.p.p.p.p.p.p.p.p.p.p.p.p.p.p.p.p.p.p.p.p.p.p.p.p.p.p.p.p.i.r.i.s.w.5X",
"9X..L $ 8 8 8 8 8 8 8 8 8 8 8 8 8 8 8 8 8 8 8 8 8 8 8 8 8 8 8 8 8 8 8 8 8 8 8 8 8 8 8 8 8 8 8 8 8 8 8 8 8 8 8 8 8 Z 6 $ E J.",
"9X;.z o . @                                                                                                       @   o I [.",
"9X>.0 o o .   X X . . . . . . . . . . . . . . . . . . . . . . . . . . . . . . . . . . . . . . . . . . . . . . . X X X o v P.",
"9X-.l o @ X @ @ @ X . . . . . . . . . . . . . . . . . . . . . . . . . . . . . . . . . . . . . . . . . . . . . . . @ . o K ).",
"9X$.l   .   @ @ @ @ @ @ @ @ @ @ @ @ @ @ @ @ @ @ @ @ @ @ @ @ @ @ @ @ @ @ @ @ @ @ @ @ @ @ @ @ @ @ @ @ @ @ @ @ @ @ . @ . o H Y.",
"9X#.k o X . @                                                                                                   o @ o o v _.",
"9X$.l   .   @ @ @ @ @ @ @ @ @ @ @ @ @ @ @ @ @ @ @ @ @ @ @ @ @ @ @ @ @ @ @ @ @ @ @ @ @ @ @ @ @ @ @ @ @ @ @ @ @ @ . @ . o K Y.",
"9X*.l   .   @                                                                                                     @   o K ].",
"9X*.l   .   @                                                                                                     @   o K ].",
"9X*.l   .   @                                                                                                     @   o K ].",
"9X*.l   .   @                                                                                                     @   o K ].",
"9X*.l   .   @                                                                                                     @   o K ].",
"9X*.l   .   @                 @   @                                                                             o . o o K _.",
"9X*.l   .   @                   @   @ @ @ @ @ @ @ @ @ @ @ @ @ @ @ @ @ @ @ @ @ @ @ @ @ @ @ @ @ @ @ @ @ @ @ @ @ @ . @ .   F Y.",
"9X*.l   .   @                 @   @ . o o     o     o                                                       o   o   & = K }.",
"9X*.l   .   @                 . . X o o ; o . @ @ @ @ @ @ @ . . . . . . . . . . . . . . . . . . . . . @ @ @ @ @ . @ o * ' R.",
"9X*.l   .   @                 . . X @ X % , o . . . . . . . . . . . . . . . . . . . . . . . . . . . . . . . . . . . . o H E.",
"9X*.l   .   @                 . . o X X o ; - o o o o o o o o o o o o o o o o o o o o o o o o o o o o o o o o o o o o > 7 (.",
"9X*.l   .   @                 @ . @ @ & , 9 { v K b K b n b n n n n n n n n n n n n n n n n n n n n n b n b K b b v B 4 Y K.",
"9X*.l   .   @                 . @ & O l ( '.9X9X9X9X9X9X9X9X9X9X9X9X9X9X9X9X9X9X9X9X9X9X9X9X9X9X9X9X9X9X9X9X9X9X9X9X9X9X8X9X",
"9X*.l   .   @                 @   . o 0 i 9X9X9X9X9X9X9X9X9X9X9X9X9X9X9X9X9X9X9X9X9X9X9X9X9X9X9X9X9X9X9X9X9X9X9X9X9X9X9X9X9X",
"9X*.l   .   @                 . @ . X @ u 9X9X9X9X9X9X9X9X9X9X9X9X9X9X9X9X9X9X9X9X9X9X9X9X9X9X9X9X9X9X9X9X9X9X9X9X9X9X9X9X9X",
"9X*.l   .   @                 . @ . o @ i 9X9X9X9X9X9X9X9X9X9X9X9X9X9X9X9X9X9X9X9X9X9X9X9X9X9X9X9X9X9X9X9X9X9X9X9X9X9X9X9X9X",
"9X*.l   .   @                 @   @ . l i 9X9X9X9X9X9X9X9X9X9X9X9X9X9X9X9X9X9X9X9X9X9X9X9X9X9X9X9X9X9X9X9X9X9X9X9X9X9X9X9X9X",
"9X*.l   .   @                 . @ . o @ p 9X9X9X9X9X9X9X9X9X9X9X9X9X9X9X9X9X9X9X9X9X9X9X9X9X9X9X9X9X9X9X9X9X9X9X9X9X9X9X9X9X",
"9X*.l   .   @                 . @ X o @ t 9X9X9X9X9X9X9X9X9X9X9X9X9X9X9X9X9X9X9X9X9X9X9X9X9X9X9X9X9X9X9X9X9X9X9X9X9X9X9X9X9X",
"9X*.l   .   @                 @   O & @ ; 9X9X9X9X9X9X9X9X9X9X9X9X9X9X9X9X9X9X9X9X9X9X9X9X9X9X9X9X9X9X9X9X9X9X9X9X9X9X9X9X9X",
"9X*.l   .   @                 @   X . @ y 9X9X9X9X9X9X9X9X9X9X9X9X9X9X9X9X9X9X9X9X9X9X9X9X9X9X9X9X9X9X9X9X9X9X9X9X9X9X9X9X9X",
"9X*.l   .   @                 . . O !   i 9X9X9X9X9X9X9X9X9X9X9X9X9X9X9X9X9X9X9X9X9X9X9X9X9X9X9X9X9X9X9X9X9X9X9X9X9X9X9X9X9X",
"9X*.l   .   @                 . . @ o < # m.{.Q.!.^.^.^.^.^.^.^.^.^.^.^.^.^.^.^.^.^.^.^.^.^.~.!./.G.F.9X9X9X9X9X9X9X9X9X9X9X",
"9X*.l   .   @                 @   .   o X A L K N N N N N N N N N N N N N N N N N N N N N N N b } 8 T  X9X9X9X9X9X9X9X9X9X9X",
"9X*.l   .   @                   @   @ @ .   o .                                             @   @ h C :X9X9X9X9X9X9X9X9X9X9X",
"9X*.l   .   @                 @   @     @   @ @ . . . . . . . . . . . . . . . . . . . . . . @ . @ d b =X9X9X9X9X9X9X9X9X9X9X",
"9X*.l   .   @                                                                               . o @ d K %X9X9X9X9X9X9X9X9X9X9X",
"9X*.l   .   @                           @   @ @ @ @ @ @ @ @ @ @ @ @ @ @ @ @ @ @ @ @ @ @ @ @ @ . @ & N =X9X9X9X9X9X9X9X9X9X9X",
"9X*.l   .   @                                                                               . . l Q m %X9X9X9X9X9X9X9X9X9X9X",
"9X*.l   .   @                                                                               X   @ s ` +X9X9X9X9X9X9X9X9X9X9X",
"9X*.l   .   @                                                                               . @ o * P #X9X9X9X9X9X9X9X9X9X9X",
"9X*.l   .   @                                                                               . . . . c 7X9X9X9X9X9X9X9X9X9X9X",
"9X*.l   .   @                                                                               . . @ o 2 g.9X>X2X1X3X2X4X6XXX9X",
"9X*.l   .   @                                                                                 @   o l + v B ` [ J ` K  .U H.",
"9X*.l   .   @                                                                               @   @ @     o o o o o   o > M |.",
"9X*.l   .   @                                                                                 @     . . . . . . . @ .   F I.",
"9X@.k   @ @ @ @ @ @ @ @ @ @ @ @ @ @ @ @ @ @ @ @ @ @ @ @ @ @ @ @ @ @ @ . @ .   @     .   @                         @ . o K ].",
"9X&.l . .   @                                                               @   @ @   @   @                       @   o K U.",
"9X,.k o @ @ @ @ @ @ @ @ @ @ @ @ @ @ @ @ @ @ @ @ @ @ @ @ @ @ @ @ @ @ @ . @ @ o @     X o @                         @   o K U.",
"9X1.S o X X X X X X X X X X X X X X X X X X X X X X X X X X X X X X X o @ o O q o @ 9 @ . .                       @   o K ].",
"9X5.@ > o o o > o > o o o o o o o o o o o o o o o o o o o o o o o o o o = o o g = a & . . .                       @   o K U.",
"9X/ ] P | P  . .P  . . . . . . . . . . . . . . . . . . . . . . . . . .P P } J n [ S : o @ .                       @   o K ].",
"9XA.j.C.x.z.k.z.c.z.v.v.v.v.v.v.v.v.v.v.v.v.v.v.v.v.v.v.v.v.v.v.v.v.v.x.z.x.n.b.D.2.Z o @                         @   o K ].",
"9X9X9X9X9X9X9X9X9X9X9X9X9X9X9X9X9X9X9X9X9X9X9X9X9X9X9X9X9X9X9X9X9X9X9X9X9X9X9X9X9XS.K o . .                       @   o K ].",
"9X9X9X9X9X9X9X9X9X9X9X9X9X9X9X9X9X9X9X9X9X9X9X9X9X9X9X9X9X9X9X9X9X9X9X9X9X9X9X9X9Xl.V   o @                       @   o K ].",
"9X9X9X9X9X9X9X9X9X9X9X9X9X9X9X9X9X9X9X9X9X9X9X9X9X9X9X9X9X9X9X9X9X9X9X9X9X9X9X9X9XB.N o . .                       @   o K ].",
"9X9X9X9X9X9X9X9X9X9X9X9X9X9X9X9X9X9X9X9X9X9X9X9X9X9X9X9X9X9X9X9X9X9X9X9X9X9X9X9X9XN.L     @                       @   o K ].",
"9X9X9X9X9X9X9X9X9X9X9X9X9X9X9X9X9X9X9X9X9X9X9X9X9X9X9X9X9X9X9X9X9X9X9X9X9X9X9X9X9Xv.V     @                       @   o K ].",
"9X9X9X9X9X9X9X9X9X9X9X9X9X9X9X9X9X9X9X9X9X9X9X9X9X9X9X9X9X9X9X9X9X9X9X9X9X9X9X9X9Xz.L     @                       @   o K ].",
"9X9X9X9X9X9X9X9X9X9X9X9X9X9X9X9X9X9X9X9X9X9X9X9X9X9X9X9X9X9X9X9X9X9X9X9X9X9X9X9X9XM.L     @                       @   o K ].",
"9X9X9X9X9X9X9X9X9X9X9X9X9X9X9X9X9X9X9X9X9X9X9X9X9X9X9X9X9X9X9X9X9X9X9X9X9X9X9X9X9XB.V     @                       @   o K ].",
"9X9X9X9X9X9X9X9X9X9X9X9X9X9X9X9X9X9X9X9X9X9X9X9X9X9X9X9X9X9X9X9X9X9X9X9X9X9X9X9X9XB.L     @                       @   o K ].",
"9X9X9X9X9X9X9X9X9X9X9X9X9X9X9X9X9X9X9X9X9X9X9X9X9X9X9X9X9X9X9X9X9X9X9X9X9X9X9X9X9XB.V     @                       @   o K ].",
"9X9X9X9X9X9X9X9X9X9X9X9X9X9X9X9X9X9X9X9X9X9X9X9X9X9X9X9X9X9X9X9X9X9X9X9X9X9X9X9X9XB.V     @                       @   o K ].",
"9X9X9X9X9X9X9X9X9X9X9X9X9X9X9X9X9X9X9X9X9X9X9X9X9X9X9X9X9X9X9X9X9X9X9X9X9X9X9X9X9XB.V     @                       @   o K ].",
"9X9X9X9X9X9X9X9X9X9X9X9X9X9X9X9X9X9X9X9X9X9X9X9X9X9X9X9X9X9X9X9X9X9X9X9X9X9X9X9X9XB.V     @                       @   o K ].",
"9X9X9X9X9X9X9X9X9X9X9X9X9X9X9X9X9X9X9X9X9X9X9X9X9X9X9X9X9X9X9X9X9X9X9X9X9X9X9X9X9XB.V     @                       @   o K ].",
"9X9X9X9X9X9X9X9X9X9X9X9X9X9X9X9X9X9X9X9X9X9X9X9X9X9X9X9X9X9X9X9X9X9X9X9X9X9X9X9X9XM.B   . .                       @   o K ].",
"9X9X9X9X9X9X9X9X9X9X9X9X9X9X9X9X9X9X9X9X9X9X9X9X9X9X9X9X9X9X9X9X9X9X9X9X9X9X9X9X9Xl.L o   @                       @   o K ].",
"9X9X9X9X9X9X9X9X9X9X9X9X9X9X9X9X9X9X9X9X9X9X9X9X9X9X9X9X9X9X9X9X9X9X9X9X9X9X9X9X9XV.x o . .                       @   o K ].",
"9X9X9X9X9X9X9X9X9X9X9X9X9X9X9X9X9X9X9X9X9X9X9X9X9X9X9X9X9X9X9X9X9X9X9X9X9X9X9X9X9Xh.P   . @                       @   o K ].",
"9X9X9X9X9X9X9X9X9X9X9X9X9X9X9X9X9X9X9X9X9X9X9X9X9X9X9X9X9X9X9X9X9X9X9X9X9X9X9X9X9XZ.c o . .                       @   o K ].",
"9X9X9X9X9X9X9X9X9X9X9X9X9X9X9X9X9X9X9X9X9X9X9X9X9X9X9X9X9X9X9X9X9X9X9X9X9X9X9X9X9Xf.4   . @                       @   o K ].",
"9X3.w j - - - - - - - - - - - - - - - - - - - - - - - - - - - - - - - - r - u ^ ) e q @ . @                       @   o K ].",
"9XX.D . l @ @ @ l @ @ @ @ @ @ @ @ @ @ @ @ @ @ @ @ @ @ @ @ @ @ @ @ @ @ @ @ l @   0 .   @   .                       @   o K ].",
"9X:.0 o X .   . @ . . . . . . . . . . . . . . . . . . . . . . . . . . . . @ @   @   .   .                         @   o K ].",
"9X@.k   @ @   @ @ @ @ @ @ @ @ @ @ @ @ @ @ @ @ @ @ @ @ @ @ @ @ @ @ @ @ @ . @ .   .     .   @                       @   o K ].",
"9X*.l   @ @ @ @                                                                               @   @ .   .   .   . . . o H U.",
"9X*.l   @ @   @ @ @ @ @ @ @ @ @ @ @ @ @ @ @ @ @ @ @ @ @ @ @ @ @ @ @ @ @ @ @ @   @               @     @   @       @ o   v `.",
"9X*.l   @ @ @ @                                                                             . @   @ . o o   . . . . . o J T.",
"9X*.l   .   @                                                                               . . . o + o   @ o o o o o ~ m W.",
"9X*.l   @ @ @ @                                                                             @ . @ o o O 1 + + + + + 8 o W L.",
"9X*.l   .   @                                                                               . . . o $ o.q.6.0.9.9.9.7.8.+.<X",
"9X*.l   .   @                                                                               . @ X o 3 .X9X9X9X9X9X9X9X9X9X9X",
"9X*.l   .   @                                                                                 . % o V ,X9X9X9X9X9X9X9X9X9X9X",
"9X*.l   .   @                                                                               @ o @ & G $X9X9X9X9X9X9X9X9X9X9X",
"9X*.l   .   @                                                                                 . . o J -X9X9X9X9X9X9X9X9X9X9X",
"9X%.9 o .   .                                                                                 o @ o H &X9X9X9X9X9X9X9X9X9X9X",
"9X&.l . @ @ @ @ @ @ @ @ @ @ @ @ @ @ @ @ @ @ @ @ @ @ @ @ @ @ @ @ @ @ @ @ @ @ @ @ @ @ @ @ @ @ @ . @ o _ ;X9X9X9X9X9X9X9X9X9X9X",
"9X<.9 o .   .                                                                                 o @ o H *X9X9X9X9X9X9X9X9X9X9X",
"9X4.9 o @ X @ @ @ @ o o o o o o o o o o o o o o o o o o o o o o o o o o o o o o o o o o o o @ @ @ f 4 OX9X9X9X9X9X9X9X9X9X9X",
"9X=.+ o X o o o . o o o o o o o o o o o o o o o o o o o o o o o o o o o o o o o o o o o o o X X & = V @X9X9X9X9X9X9X9X9X9X9X",
"9XO.F 7 4 4 5 4 6 4 6 6 6 6 6 6 6 6 6 6 6 6 6 6 6 6 6 6 6 6 6 6 6 6 6 6 6 6 6 6 6 6 6 6 6 6 6 6 3 8 R oX9X9X9X9X9X9X9X9X9X9X",
"9X9X9X9X9X9X9X9X9X9X9X9X9X9X9X9X9X9X9X9X9X9X9X9X9X9X9X9X9X9X9X9X9X9X9X9X9X9X9X9X9X9X9X9X9X9X9X9X9X9X9X9X9X9X9X9X9X9X9X9X9X9X"
};
