/* XPM */
static char *result[] = {
/* columns rows colors chars-per-pixel */
"29 39 125 2 ",
"   c #342F2E",
".  c #2F2F32",
"X  c #2E373B",
"o  c #2F383C",
"O  c #343435",
"+  c #373738",
"@  c #3A3539",
"#  c #3C3B3B",
"$  c #403C3D",
"%  c #3E413F",
"&  c #3E3F41",
"*  c #423F41",
"=  c #3F4042",
"-  c #424243",
";  c #494646",
":  c #484946",
">  c #464649",
",  c #4A4748",
"<  c #4C4C4C",
"1  c #504F4F",
"2  c #4D504F",
"3  c #50514E",
"4  c #444E51",
"5  c #514E51",
"6  c #4E5150",
"7  c #4F5A5C",
"8  c #545554",
"9  c #575856",
"0  c #595957",
"q  c #575658",
"w  c #595559",
"e  c #575A59",
"r  c #5C5D5C",
"t  c #60615F",
"y  c #5C5C60",
"u  c #615C60",
"i  c #576165",
"p  c #5F6160",
"a  c #636463",
"s  c #696566",
"d  c #676966",
"f  c #686B67",
"g  c #6C6769",
"h  c #6B6B6C",
"j  c #716E6F",
"k  c #6E6E70",
"l  c #726E71",
"z  c #6D7173",
"x  c #6F777B",
"c  c #737473",
"v  c #797476",
"b  c #767876",
"n  c #787877",
"m  c #797378",
"M  c #767878",
"N  c #7C7D7C",
"B  c #7D7F80",
"V  c #7F8180",
"C  c #828282",
"Z  c #8C868B",
"A  c #8C8B8B",
"S  c #928C8D",
"D  c #8E908D",
"F  c #90928F",
"G  c #8E8690",
"H  c #868E97",
"J  c #928B94",
"K  c #8E9190",
"L  c #87919A",
"P  c #88919A",
"I  c #929392",
"U  c #989494",
"Y  c #9B9699",
"T  c #979999",
"R  c #9D9D9C",
"E  c #A39D9E",
"W  c #939BA0",
"Q  c #A69FAA",
"!  c #9EA0A0",
"~  c #9AA4AD",
"^  c #A5A4A4",
"/  c #A9A5A6",
"(  c #A7A3A9",
")  c #AEA7AE",
"_  c #A7A9A8",
"`  c #ACABAB",
"'  c #B1ACAD",
"]  c #AFB0AE",
"[  c #A6ADB3",
"{  c #A8AFB5",
"}  c #B3AEB1",
"|  c #AAB1B6",
" . c #A7B1BA",
".. c #B3B3B2",
"X. c #BAB5B6",
"o. c #B8B8B6",
"O. c #B0B7BE",
"+. c #BAB5B9",
"@. c #BDBBBB",
"#. c #C1BCBD",
"$. c #B7BFC5",
"%. c #C2BDC1",
"&. c #C4C4C4",
"*. c #C9C6C7",
"=. c #C8C7C8",
"-. c #CBCBCB",
";. c #D5D4D4",
":. c #D8D8D7",
">. c #DBD7D9",
",. c #DCDBDB",
"<. c #E1DEDE",
"1. c #D7DFE7",
"2. c #E4DDE3",
"3. c #D8E0E6",
"4. c #D9E2EA",
"5. c #E5E3E3",
"6. c #E9E5E5",
"7. c #EDEDED",
"8. c #F0ECEE",
"9. c #F5EDF4",
"0. c #E8F0F8",
"q. c #F4F4F3",
"w. c #FBF7F9",
"e. c #FEFEFE",
"r. c None",
/* pixels */
"r.r.r.r.r.r.r.r.r.r.r.r.N v c j r.r.r.r.r.r.r.r.r.r.r.r.r.",
"r.r.r.r.r.r.r.r.r.r.C C V c r r V A r.r.r.r.r.r.r.r.r.r.r.",
"r.r.r.r.r.r.r.r.r.r.Z A C c 8 9 V A r.r.r.r.r.r.r.r.r.r.r.",
"r.r.r.r.r.r.r.r.r.r.n N v t : < h n n r.r.r.r.r.r.r.r.r.r.",
"r.r.r.r.r.r.r.r.r.r.j t r : + % 8 9 t r.r.r.r.r.r.r.r.r.r.",
"r.r.r.r.r.r.r.r.r.r.g r 9 : # % 3 8 r r.r.r.r.r.r.r.r.r.r.",
"r.r.r.r.r.r.r.r.r.r.t 0 9 : % % 8 9 t c r.r.r.r.r.r.r.r.r.",
"r.r.r.r.r.r.r.r.r.r.t 0 9 3 : : 8 9 t c r.r.r.r.r.r.r.r.r.",
"r.r.r.r.r.r.r.r.r.r.t 9 9 3 3 2 9 3 r n r.r.r.r.r.r.r.r.r.",
"r.r.r.r.r.r.r.r.r.r.r r 0 0 0 8 9 9 t N r.r.r.r.r.r.r.r.r.",
"r.r.r.r.r.r.r.r.r.r.@.o.o.] ^ R c 0 a c r.r.r.r.r.r.r.r.r.",
"r.r.r.r.r.r.r.r.r.` <.:.;.&.@...c t d r.r.r.r.r.r.r.r.r.r.",
"r.r.r.r.r.r.r.r.r._ ;.;.-.&.o.] c t f r.r.r.r.r.r.r.r.r.r.",
"r.r.r.r.r.r.r.r.r._ :.;.;.&.o.] c t h r.r.r.r.r.r.r.r.r.r.",
"r.r.r.r.r.r.r.T ! -.q.q.q.5.;.-.D C b t w r.r.r.r.r.r.r.r.",
"r.r.r.r.r.r.r._ ..5.e.e.e.q.5.;.R F b 0 8 8 a r.r.r.r.r.r.",
"r.r.r.r.r.r.r._ ..;.q.7.7.3.:.&.T C b r 0 8 y r.r.r.r.r.r.",
"r.r.r.r.r.r.r./ ` | @.@.o.o.@...A N b 0 0 0 p r.r.r.r.r.r.",
"r.r.r.r.r.r.r.` ^ _ ` ..] ......A V b 0 0 0 p r.r.r.r.r.r.",
"r.r.r.r.r.r.r.$.&.-.;.:.;.;.-.&.T D V 0 0 0 p r.r.r.r.r.r.",
"r.r.r.r.r.r.r.:.6.w.e.e.e.q.5.<..._ D t 8 9 p r.r.r.r.r.r.",
"r.r.r.r.r.r.r.:.5.q.e.e.e.7.3.>.] _ D r 9 9 a r.r.r.r.r.r.",
"r.r.r.r.r.r.r.,.5.q.e.e.e.7.5.:..._ F t 7 9 p r.r.r.r.r.r.",
"r.r.r.I r.r.r.-.-.&.=.&.@.o...' F F V i 8 8 r r.r.r.r.r.r.",
"r.r.r..._ ` ` ' / A N n n N B V M N h 9 6 6 8 e r r.r.r.r.",
"r.r.r...` ) / ../ A C C V V C C V V z r 8 6 8 8 e r.r.r.r.",
"r.r.r.` ` ..#.5.5.:.*.*.&.) E R F D b p p r e e r r.r.r.r.",
"r.r.r.^ ` / &.e.e.e.8.q.q.-.] o.R K V p a i r 8 w r.r.r.r.",
"r.r.r...+.o.&.9.7.;.#.#.&._ F I V V z d f h p 8 8 r.r.r.r.",
"r.r.r.:.5.<.:.#.X.v ; 1 < : : % = = 8 z M M d 7 2 r.r.r.r.",
"r.r.r.<.2.6.>.X.' s   # + O O O O O : N V N z e 6 r.r.r.r.",
"r.r.r.<.5.5.>.@.X.j O # # + + # % + 2 x V N k r 8 h r.r.r.",
"r.r.^ <.6.6.;.Q E t $ $ ; $ ; - > & 2 h z z i q 8 a k r.r.",
"r.r.X.<.6.6.' ; ; w g g g g j j g h y - & & > 8 8 q y y r.",
"/ / #.<.5.<.^     8 l j j j j j h c w O . O & q q q q q r.",
"^ ' X.+.X.#.' S S U E E E F A Z Z A b 8 5 5 5 < < < q q r.",
"^ ' Q J Z Z } w.w.8.2.<.<.#./ ) ` ) U c l c w & & , w w r.",
"( X.Q J G G +.e.e.9.2.2.2.#.) } } } Y v l m y + & < w w r.",
"~  .~ P P H O.e.e.0.4.1.1.$.[ [ { | W x z x y X X > 7 7 r."
};
