/* XPM */
static char *e59b152f6acd4d90c7c47da997b617124K93h9UoDKE5pwCI[] = {
/* columns rows colors chars-per-pixel */
"95 74 155 2 ",
"   c None",
".  c #010100",
"X  c #0B0500",
"o  c #0F0800",
"O  c #130500",
"+  c #1B0500",
"@  c #150900",
"#  c #190B00",
"$  c #210700",
"%  c #230E00",
"&  c #2B0E00",
"*  c #251000",
"=  c #2D1100",
"-  c #341400",
";  c #3A1600",
":  c #371800",
">  c #3C1900",
",  c #241F19",
"<  c #2C231C",
"1  c #3A332C",
"2  c #401600",
"3  c #4A1400",
"4  c #441B00",
"5  c #4D1C00",
"6  c #551E00",
"7  c #4C2201",
"8  c #562100",
"9  c #5D2500",
"0  c #5E2B02",
"q  c #522B0E",
"w  c #622700",
"e  c #6C2700",
"r  c #602A01",
"t  c #6C2B00",
"y  c #702B00",
"u  c #7B2E00",
"i  c #6D370E",
"p  c #753403",
"a  c #7A3100",
"s  c #7A3801",
"d  c #443B33",
"f  c #4D3F33",
"g  c #7F4214",
"h  c #4D4136",
"j  c #4C4339",
"k  c #514133",
"l  c #61432A",
"z  c #714E32",
"x  c #7B5232",
"c  c #822D00",
"v  c #833200",
"b  c #8A3700",
"n  c #8E3800",
"m  c #943600",
"M  c #983700",
"N  c #943E00",
"B  c #9B3900",
"V  c #A23E00",
"C  c #A93F00",
"Z  c #9E4100",
"A  c #964A09",
"S  c #8C4814",
"D  c #9F4D11",
"F  c #954D18",
"G  c #A34300",
"H  c #AA4200",
"J  c #AA4E06",
"K  c #A9480C",
"L  c #B54500",
"P  c #B24C02",
"I  c #BB4B00",
"U  c #B2540C",
"Y  c #B8540D",
"T  c #A24D19",
"R  c #A65314",
"E  c #BD5F15",
"W  c #BE5F18",
"Q  c #845432",
"!  c #AD632F",
"~  c #C54700",
"^  c #CB5504",
"/  c #CD5D05",
"(  c #C65E0F",
")  c #D55603",
"_  c #DA5600",
"`  c #D25E05",
"'  c #DA5C04",
"]  c #D25E0A",
"[  c #D5600A",
"{  c #DC650B",
"}  c #CE6917",
"|  c #C26219",
" . c #CA681B",
".. c #D16516",
"X. c #DA6610",
"o. c #D06817",
"O. c #DB6816",
"+. c #D06718",
"@. c #D06818",
"#. c #D96E18",
"$. c #E86404",
"%. c #E5690B",
"&. c #EA6A0B",
"*. c #F36A05",
"=. c #F0690E",
"-. c #F07217",
";. c #F0781D",
":. c #C96B25",
">. c #C36A2E",
",. c #CA6E2F",
"<. c #D26B24",
"1. c #D87024",
"2. c #D5732F",
"3. c #D8712B",
"4. c #CD7133",
"5. c #D97733",
"6. c #DB7833",
"7. c #DF7E39",
"8. c #E0742C",
"9. c #FF7F25",
"0. c #E87D33",
"q. c #FB811F",
"w. c #FF8224",
"e. c #EE873B",
"r. c #F08437",
"t. c #F88333",
"y. c #F08F3E",
"u. c #FD8E3F",
"i. c #FA8E47",
"p. c #F78F48",
"a. c #F98F49",
"s. c #FF9141",
"d. c #F99049",
"f. c #FF9A48",
"g. c #F69650",
"h. c #FFA04C",
"j. c #F4A96D",
"k. c #FBAB6D",
"l. c #F8A96D",
"z. c #FCAB6D",
"x. c #FFAD6D",
"c. c #FFAE6D",
"v. c #FFAF6D",
"b. c #FFB16E",
"n. c #FFB16B",
"m. c #F5AD75",
"M. c #F7AE74",
"N. c #FFAF71",
"B. c #F6B077",
"V. c #FFB171",
"C. c #FFB172",
"Z. c #FFB072",
"A. c #FFB172",
"S. c #FEB67B",
"D. c #F5B786",
/* pixels */
"                                                                                                                                                                                              ",
"j.~ & X O . . . . . . . . + + e r.                                                        m.) U ` / / / / / / / / / ` J ) g.                                9._ A { P / / / / / / / ` / $.*.  ",
"b.L O . . . . . . . . . . X o 8 e.                                                        k.c X ; & ; > > ; ; > = - = X B d.                                D ; . ; # ; > > > - - = % % 2 P   ",
"b.m . . . . . . . . . . . X . B s.                                                        k.u . @ . o . . . . . . @ . o Z a.                                i > . . X . . . . . . . . . . G   ",
"Z.M . X @ . . . . . . . . # . H s.                                                        c.H . . . X . . X @ o @ # @ . V d.                                S % X # X X . X . X X . # o % P   ",
"Z.M . . . . . . . . . . . . X H s.                                                        k.m o # X * * * * % * X > . o G d.                                S r . @ * * * * * * * % . . . N   ",
"Z.M X X . . . . . . . . . X X H s.                                                        z.m o o . o X o X @ # . > . . H d.                                S 9 . @ O X X X X X o X X . X N   ",
"Z.M X X . . . . . . . . . X X H s.                                                        c.B . . . . . . . . . @ . X . b d.                                S 9 . @ . . . . . . . . . . . N   ",
"Z.m . X . . . . . . . . . X X H s.                                                        c.M . . . . . . . X o X @ . . n d.                                S 9 . @ X . . . . . . . . . X N   ",
"Z.m X X . . . . . . . . . X . H s.                                                        c.m . . . . . . . . . # . X o b d.                                S 9 . @ . . . . . . . . . . . N   ",
"A.M X X . . . . . . . . . X X H s.                                                        c.m . . . . . . . . . @ . o X b d.                                S 9 . @ X . . . . . . . . . X N   ",
"A.M X . . . . . . . . . . X X H s.                                                        c.m . . . . . . . . . # . X X b d.                                S 9 . # . . . . . . . . . . . N   ",
"A.M X X . . . . . . . . . X X H s.                                                        c.m . . . . . . . . . # . X X b d.                                S 9 . @ X . . . . . . . . . X N   ",
"A.M . X . . . . . . . . . X . H s.                                                        c.m . X . . . . . . . # . X o b d.                                S 9 . # . . . . . . . . . . X N   ",
"A.m X X . . . . . . . . . X X H s.                                                        c.m . . . . . . . . . # . X X b d.                                S 9 . @ . . . . . . . . . . . N   ",
"A.m X . . . . . . . . . . X X H s.                                                        c.m . . . . . . . . . # . X X b d.                                S 9 . @ X . . . . . . . . . X N   ",
"A.B . X . . . . . . . . . X X H s.                                                        c.m . . . . . . . . . @ . X X b a.                                S 9 . @ . . . . . . . . . . . N   ",
"A.m X X . . . . . . . . . X X H s.                                                        c.m . X . . . . . . . # . X X b d.                                S 9 . @ X . . . . . . . . . X N   ",
"A.M X . . . . . . . . . . X X H s.                                                        c.m . . . . . . . . . # . o o b d.                                S 9 . @ X . . . . . . . . . . N   ",
"A.M X X . . . . . . . . . X . H s.                                                        c.m . . . . . . . . . # . X X b d.                                S 9 . # . . . . . . . . . . X N   ",
"Z.m . X . . . . . . . . . X . H s.                                                        c.m . . . . . . . . . # . X X b d.                                S 9 . @ . . . . . . . . . . X N   ",
"Z.m X X . . . . . . . . . X X H s.                                                        c.m . . . . . . . . . # . X o b d.                                S 9 . @ X . . . . . . . . . . N   ",
"A.M X X . . . . . . . . . X X H s.                                                        c.m . X . . . . . . . # . X X b d.                                S 9 . @ . . . . . . . . . . X N   ",
"A.M X . . . . . . . . . . X X H s.                                                        c.m . . . . . . . . . # . X X b d.                                S 9 . @ X . . . . . . . . X . N   ",
"A.M X X . . . . . . . . . X X H s.                                                        c.m . . . . . . . . . # . X o b p.                                S 9 . @ X . . . . . . . . . X N   ",
"A.M . X . . . . . . . . . X . H s.                                                        c.m . . . . . . . . . # . X X b d.                                S 9 . # . . . . . . . . . . . N   ",
"A.m X X . . . . . . . . . X . H s.                                                        c.m . . . . . . . . . # . o X b d.                                S 9 . @ . . . . . . . . . . X Z   ",
"A.m X . . . . . . . . . . X X H s.                                                        c.m . . . . . . . . . # . X X b d.                                S 9 . @ X . . . . . . . . X . N   ",
"A.B . X . . . . . . . . . X X H s.                                                        c.m . X . . . . . . . # . X X b d.                                S 9 . @ . . . . . . . . . . . N   ",
"A.m X X . . . . . . . . . X X H s.                                                        c.m . . . . . . . . . # . X o b d.                                S 9 . @ X . . . . . . . . . X N   ",
"A.M X . . . . . . . . . . X X H s.                                                        c.m . . . . . . . . . # . X X b d.                                S 9 . @ X . . . . . . . . . . B   ",
"A.M X X . . . . . . . . . X . H s.                                                        c.m . . . . . . . . . # . X X b d.                                S 9 . # . . . . . . . . . . . Z   ",
"Z.m . X . . . . . . . . . X . H s.                                                        c.m . . . . . . . . . @ . X X b a.                                S 9 . @ X . . . . . . . . X . N   ",
"Z.m X X . . . . . . . . . X X H s.                                                        c.m . . . . . . . . . # . X X b d.                                S 9 . # . . . . . . . . . . X N   ",
"A.M X X . . . . . . . . . X X H s.                                                        c.m . . . . . . . . . # . o o b d.                                S 9 . @ X . . . . . . . . . . N   ",
"A.M X . . . . . . . . . . X X H s.                                                        c.m . . . . . . . . . # . X X b d.                                S 9 . @ . . . . . . . . . . X N   ",
"A.M X X . . . . . . . . . X X H s.                                                        c.m . . . . . . . . . # . X X b d.                                S 9 . @ . . . . . . . . . . . N   ",
"A.M . X . . . . . . . . . X . H s.                                                        c.m . . . . . . . . . # . X o b d.                                S 9 . @ X . . . . . . . . . X N   ",
"A.m X X . . . . . . . . . X . H s.                                                        c.m . X . . . . . . . # . X X b d.                                S 9 . @ X . . . . . . . . . . N   ",
"A.m X . . . . . . . . . . X X H s.                                                        c.m . . . . . . . . . # . X X b d.                                S 9 . # . . . . . . . . . . X N   ",
"A.B . X . . . . . . . . . X X H s.                                                        c.m . . . . . . . . . # . X o b p.                                S 9 . @ . . . . . . . . . . X N   ",
"A.m X X . . . . . . . . . X X H s.                                                        c.m . . . . . . . . . # . X X b d.                                S 9 . @ X . . . . . . . . . . N   ",
"A.M X . . . . . . . . . . X X H s.                                                        c.m . . . . . . . . . # . o X b d.                                S 9 . @ . . . . . . . . . . X N   ",
"A.M X X . . . . . . . . . X . H s.                                                        c.m . . . . . . . . . # . X X b d.                                S 9 . @ X . . . . . . . . . . N   ",
"Z.m . X . . . . . . . . . X . H s.                                                        c.m . X . . . . . . . # . X X b d.                                S 9 . @ X . . . . . . . . . X N   ",
"Z.m X X . . . . . . . . . X X H s.                                                        c.m . . . . . . . . . # . X o b d.                                S 9 . # . . . . . . . . . . X N   ",
"A.M X X . . . . . . . . . X X H s.                                                        c.m . . . . . . . . . # . X X b d.                                S 9 . @ . . . . . . . . . . . N   ",
"A.M X . . . . . . . . . . X X H s.                                                        c.m . . . . . . . . . # . X X b d.                                S 9 . @ X . . . . . . . . . X N   ",
"A.M X X . . . . . . . . . X X H s.                                                        S.T , < X . . . . . . @ . X X b a.                                S 9 . @ . . . . . . . . . X X n   ",
"A.M . X . . . . . . . . . X . H s.                                y.4.0.t.5.5.5.5.5.5.5.5.7.8.>.3.1 . . . . . . # . X X b d.                                S 9 . @ X . . . . . . . . . . Z   ",
"A.m X X . . . . . . . . . X X H s.                                ( + 6 2 + O + O + O + O + + + 3 j . . . . . . # . o o b d.                                S 9 . @ X . . . . . . . . . X N   ",
"A.m X . . . . . . . . . . @ . H s.                                #.4 o X X X o X X X X X . X . N h . . . . . . # . X X b d.                                S 9 . # . . . . . . . . . . . N   ",
"A.B . X . . . . . . . . . @ . H u.                                o.o O o X . . . . X . X X X . t j . . . . . . # . X X b d.                                S 9 . # X . . . . . . . . . . Z   ",
"A.m X X . . . . . . . . . # . H s.                                | # # . @ # @ # O X O . o . - t d . . . . . . # . X X V d.                                S = . # X o . . . . . . . . X n   ",
"A.M X . . . . . . . . . . X X N i.                                | o @ . . X . . . . . . X . @ 9 d . . . . . . # . . . n i.                                | 4 . # # . . . . . . . . . . Z   ",
"A.M X X . . . . . . . . . o . L s.                                | X @ X X . . . . . . . # . . 6 d . . . . . . # X X X B d.                                F # @ @ X O . . . . . . . . . Z   ",
"Z.m . X . . . . . . . . . # o v f.                                o.X @ X X . . . . . . . # . X 8 d . . . . . . X . X . I h.                                R @ % # X X . . . . . . . . X N   ",
"Z.m X X . . . . . . . . . . O % q z x Q Q z z z z z z z z z x x l 8 8 . @ X . . . . . . . # . . 6 d . . . . . . o . . . - i >.>.Q ,.! 2.2.2.4.2.2.2.2.2.2.<.8 s p 8 . # . . . . . . . . . N   ",
"A.M X X . . . . . . . . . X # # . . . . X . X X X X X . . X . X # % % . . X . . . . . . . # . X 8 d . . . . . . . . . X . X & H 5 O O + + + + + + + + + # + * 7 7 X @ . . . . . . . X . % P   ",
"A.M X . . . . . . . . . . . X . % % . X - # O @ O O @ @ @ O % * # * % # X O . . . . . . . # . . 6 f o X o . X . . . . X X * # X # X . . . . . . . . . . . @ # * X X # X . . o X X X @ @ O G   ",
"A.M X X . . . . . . . . . o @ o % @ @ o > @ o o O o o o o o = = o @ @ o # . . . . . . . . # . X 8 k O O O . o . . . . o # # o . @ @ @ O @ @ O @ @ O X X X @ o @ # . o . X X O X . . . . - ^   ",
"A.M . X . . . . . . . . . @ o # X X % # @ # O @ @ @ @ O @ # @ @ . . . X o . . . . . . . . # . . 8 k # @ # . o . . . . @ o X X . . X X X X X X X X X . . . . O X o . o X X o @ @ o o @ O X Z   ",
"A.m X X . . . . . . . . . o O X . . X . X . . X . . . . . . X . @ # . . O . . . . . . . . # . . 6 f o o o . @ . . . . . . . . . . . . . . . . . . . . . . . . . . . . X # # @ o . @ . X . N   ",
"A.m X . . . . . . . . . . o X # @ . o . @ . . . . . . . . . X X . . . . . . . . . . . . . # . X 8 Q 5 5 6 o > @ . . . . . . . . . . . . . . . . . . . . . . . . . . . . o . ; + & 6 6 8 8 m   ",
"A.B . X . . . . . . . . . . . . . . . . . . . . . . . . . . . . . . . . . . . . . . . . . # . X 8 d.w.w.w.R r o # . . . . . . . . . . . . . . . . . . . . . . . . . X o @ > O.:.1.9.w.w.w.<.  ",
"A.m X X . . . . . . . . . . . . . . . . . . . . . . . . . . . . . . . . . . . . . . . . . # . . 8         b.u . # # . . . . . . . . . . . . . . . . . . . . . . . . . . = (                   ",
"A.M X . . . . . . . . . . . . . . . . . . . . . . . . . . . . . . . . . . . . . . . . . . # . X 8           I 0 o . @ . . . . . . . . . . . . . . . . . . . . . . . X . - %.                  ",
"A.m X X . . . . . . . . . . . . . . . . . . . . . . . . . . . . . . . . . . . . . . . . . o . . 8           _ 7 @ o . . . . . . . . . . . . . . . . . . . . . X @ . @ . > {                   ",
"N.V @ o . . . . . . . . . . . . . . . . . . . . . . . . . . . . . . . . . . . . . . . . . o . . 8           u . @ @ @ @ @ @ @ @ @ @ @ @ @ @ @ @ @ @ @ @ @ @ @ O X o . . > X.                  ",
"M.b . @ X o X X X X X o X o X o o X X X o X X X X o X X X o X X X X X o X X X o o X o X X O o . a           u X O . X X X X . X X X X . . X X X X . X X X X X o X @ o . > X.                  ",
"N.B . O @ @ @ @ @ @ @ @ @ @ @ @ O @ @ @ O @ @ @ @ @ @ @ @ @ @ @ @ @ @ @ @ @ @ @ O @ @ @ @ @ o . t           u . . . . . . . . . . . . . . . . . . . . . . . . . . . . . ; X.                  ",
"c.m X = = = = = = = = = = = = = = = = = = = = = = = = = = = = = = = = = = = = = = = = = % & % & e         D.c # - ; ; ; ; ; ; ; ; ; ; ; ; ; ; ; ; ; ; ; ; ; ; ; ; ; 5 O 5 &.                  ",
"B.^ Y [ ] ] ] ] ] ] ] ] ] ] ] ] ] ] ] ] ] ] ] ] ] ] ] ] ] ] ] ] ] ] ] ] ] ] ] ] ] ] ] ] [ ] ] ] K           =. .} +.@.@.@.@.@.@.+.@.@.@.@.@.@.@.@.@.@.@.@.@.@.@.o.+.-.W ..w.                  ",
"                                                                                                                                                                                              "
};
