/* XPM */
static char *_1ddc73910304ebabbd317fd1851159fldNLBmm3sXuvY9Xw[] = {
/* columns rows colors chars-per-pixel */
"35 39 11 1 ",
"  c None",
". c #010101",
"X c #101010",
"o c #202020",
"O c gray32",
"+ c gray39",
"@ c #848484",
"# c #A5A5A5",
"$ c #CECECE",
"% c #F8F0E0",
"& c #F8F8F8",
/* pixels */
"                                   ",
"                                   ",
"                                   ",
"                                   ",
"                                   ",
"                                   ",
"                                   ",
"                                   ",
"                 @                 ",
"                 @                 ",
"                 #                 ",
"       @         $         @       ",
"       #    @    %    @    #       ",
"       $    @    %    @    $       ",
"       &    #   @%@   #    &       ",
"       &    $   @%@   $    &       ",
"       &    $   @%@   $    &       ",
"       &    $   #%#   $    &       ",
"      @&@   $   #%#   $   @&@      ",
"      @&@   $   #%$   $   @&@      ",
"      #&@  @$@  #%$  @$@  @&#      ",
"      #&@  @$@  #%$  @$@  @&#      ",
"      #&@  @$@  #%$@ @$@  @&#      ",
"      #&@  @$@  #%$@+@$@  @&#      ",
"      $&@  @$@O+#%$@+@$@  @&$      ",
"     @$&@  @$@O+#%$@O@$@  @&$@     ",
"     @$&@O+@$@O+#%$@O@$@+O@&$@     ",
"     @$&@O+@@@O@#%$#O@@@+O@&$@     ",
"     @$&@O+@@@O@#%$#O@@@+O@&$@     ",
"     @$&@O+@@@O@#%$#O@@@+O@&$@     ",
"     #$&@+O@@@O@#%$#O@@@O+@&$#     ",
"     #$&@+O@@O+@#%$#+O@@O+@&$#     ",
"     #$&@+O@@O+@#%$#+O@@O+@&$#     ",
"    +#$&@+O@@O+@#%$#+O@@O+@&$#+    ",
"    @#$&@+O@@O+@#%$#+O@@O+@&$#@    ",
"    @#$&@+OXXO+@#%$#+OXXO+@&$#@    ",
"    XXXXXXXooXXXXXXXXXooXXXXXXX    ",
"   ooooooooooooooooooooooooooooo   ",
"  ...............................  "
};
